<?xml version="1.0" encoding="utf-8"?>
<!-- Generator: Adobe Illustrator 22.0.1, SVG Export Plug-In . SVG Version: 6.00 Build 0)  -->
<svg version="1.1" id="Ebene_1" xmlns="http://www.w3.org/2000/svg" xmlns:xlink="http://www.w3.org/1999/xlink" x="0px" y="0px"
	 viewBox="0 0 343.9 323.3" style="enable-background:new 0 0 343.9 323.3;" xml:space="preserve">
<style type="text/css">
	.st0{fill:#FFFFFF;}
</style>
<path d="M87.7,145.7c-0.2,1.2,0.4,1.7,1.3,2.2c5.9,3.5,12.2,6.1,18.4,8.8c1.3,0.6,2.6,1.3,3.9,1.9c1.2,0.5,2.3,1.2,3.7,0.9
	c0.3-0.1,0.7,0.1,1,0.3c1.1,0.8,2.4,0.7,3.6,0.7c0.4,0,1-0.3,1.1-0.7c0.3-0.6-0.2-0.9-0.6-1.3c-0.6-0.5-1.2-1-1.7-1.6
	c-0.9-1.1-0.8-1.9,0.5-2.7c0.4-0.3,1-0.5,1.4-0.7c0.4-0.2,0.8-0.5,1.4-0.8c-0.4-0.4-0.6-0.8-1-1c-1.6-0.8-3.2-1.3-4.9-0.1
	c-1.2,0.8-2.4,0.8-4,0.3c-1.6-0.6-2.9-1.9-4.6-2.1c-1.4-0.1-2.7-0.4-4.1-0.3c-1.4,0-1.8,1.1-0.9,2.3c0.4,0.6,1,1.1,1.6,1.8
	c-1.2,0.7-2.1,0.5-2.9-0.3c-1.1-1.1-1.4-2.4-0.9-3.8c0.7-1.9,2.5-2,4.4-1.9c-0.1-0.7-0.1-1.4-0.3-2c-0.4-1.8,0.7-3.6,2.3-3.9
	c1.6-0.3,3.2-0.7,4.8-0.8c2.3-0.2,4.3,1,6.2,2c0.5,0.3,0.9,0.9,1.2,1.5c1.2,3.2,4.4,4.2,7.4,2.2c-3-4.4-6.6-8.3-10.1-12.2
	c-1.4-1.6-3.1-2.8-4.5-4.3c-4-4.2-7.9-8.5-11.9-12.7c-1.3-1.4-2.7-2.8-3.9-4.2c-1.9-2.1-3.9-4.3-5.7-6.5c-3.6-4.5-7.7-8.7-11.8-12.8
	c-2-2-3.7-4.4-5.3-6.8c-2.2-3.2-4.3-6.5-6.5-9.7c-2.3-3.2-4.7-6.3-7.1-9.5c-1.9-2.5-4-4.9-5.8-7.5c-2-2.9-3.9-5.9-5.4-9.1
	c-1.2-2.5-1.5-5.3-0.7-8.2c0.6-2.4,1.5-4.5,3.4-6.1c3-2.6,6.5-3.5,10.4-2.6c4.3,1,7.8,3.3,10.8,6.4c2.6,2.6,5.1,5.4,7.6,8.1
	c0.7,0.7,1.2,1.5,1.8,2.3c6,8.4,11.9,16.9,17,25.9c3.2,5.7,6.2,11.5,9.4,17.1c1.8,3.1,3.7,6.1,5.5,9.3c1.1,2,1.9,4.3,3.1,6.3
	c3.4,5.9,6.8,11.7,10.3,17.5c2.2,3.7,4.4,7.4,6.6,11.1c0.9,1.5,2,3,2.9,4.3c1.4,0.2,2.6,0.5,3.8,0.7c0.3,0,0.7-0.2,1.4-0.4
	c-1.6-0.5-2.9-0.8-4.1-1.2c-2.9-1.2-3.7-4.4-1.6-6.7c2-2.3,4.7-3.1,7.5-3.2c0.7,0,1.4,0.3,2,0.6c1,0.5,1.4,1.5,1.2,2.7
	c-0.1,0.6-0.1,0.6,0.7,1.4c0.1-1,0.1-1.8,0.3-2.6c0.1-0.8,0.4-1.6,0.5-2.4c0.1-0.8,0.1-1.5,0.3-2.3c0.8-4.2,3.1-7.2,7.1-8.7
	c1.8-0.7,3.7-1.5,5.6-2c1.9-0.5,3.9-0.6,5.8-0.9c2.5-0.4,5,0.1,7.5,0.4c4.5,0.5,8.6,2,12.2,4.7c0.8,0.6,1.5,1.1,2.2,1.6
	c1.7-0.5,3.2-1.1,4.7-1.4c2.3-0.4,3.9,0.7,4.6,2.8c0.2,0.7,0.5,1.4-0.6,1.9c-0.4-0.6-0.8-1.2-1.1-1.7c-0.6-0.9-1.4-1.3-2.6-1.1
	c-1.3,0.3-2.6,0.4-3.7,1.5c0.7,0.9,1.4,1.9,2,2.9c0.2,0.3,0.5,0.7,0.6,1.1c0.4,1.9,1.2,3.6,1.3,5.5c0.1,1.7-0.2,3.2-0.8,4.7
	c-0.4,0.9-0.8,1.8-1.3,2.7c-2.4,4.2-6.2,6-10.8,6.8c-4.2,0.7-8.3,0.3-12.5,0c-0.3,0-0.7,0-1.1,0.1c1.9,2.7,4.1,5.3,2.5,9.1
	c1.9,1,3,2.6,2.3,5c0.8,0.3,1.6,0.5,2.3,0.8c1.2,0.5,2.3,1.1,3.1,2.2c1.1,1.5,2.7,1.4,4,0.2c2.8-2.7,3.7-2.9,7.4-1.1
	c0.4-0.9,0.8-1.7,1.2-2.6c0.8-1.8,2.2-3.1,3.9-4.1c1.4-0.9,2.9-0.9,4.4-0.2c0.4,0.2,0.9,0.3,1.3,0.6c0.5,0.4,1.1,0.8,1.2,1.3
	c0.3,1.7,0.9,3.4,0.4,5.1c-0.1,0.3-0.1,0.6-0.2,0.9c-0.1,1.9-0.6,3.7-1.8,5c0.9,1.5,1.7,3,2.5,4.4c2.4-0.6,4.8-3.1,4.5-5.6
	c-0.3-2-0.7-3.6-2.9-4.2c-0.6-0.2-1.3-0.4-1.5-1.2c1.5-0.7,2.8-0.3,4,0.5c0.7-0.3,1.4-0.6,2.1-0.8c2.2-0.8,2.9-2.5,1.9-4.5
	c-1.2-2.5-4.1-3.7-6.8-2.8c-0.7,0.2-1.4,0.6-2.1,0.9c-1,0.5-1.4,0.3-2.1-0.8c0.2-1,1.2-1.1,1.9-1.4c0.7-0.4,1.5-0.6,2.2-0.9
	c-0.5-1.4-1-2.8-1.5-4.3c-1-0.4-2.1-0.9-3.2-1.4c-1.4-0.7-2.4-1.8-3-3.2c-0.7-1.6-0.3-2.8,1.3-3.6c2-1.1,4.2-1.4,6.4-1.2
	c0.6,0.1,1.3,0.4,1.7,0.8c1.1,1.1,2.3,2.1,2.6,3.9c0.7,0,1.4,0,2,0c2.3,0.1,4.3,1.6,4.8,3.9c0.3,1.6,0.4,3.2,0.7,5
	c0.6,0.2,1.6,0.5,2.7,0.8c-0.5-1.1-1.1-1.9-1.4-2.8c-0.7-1.9-0.3-3,1.6-3.9c0.9-0.4,1.8-0.7,2.5-1c-2.9-2.4-5.7-4.8-8.8-7.3
	c-0.3,1.8-0.8,3.5-3.1,3.7c0.1-0.5,0.1-0.9,0.2-1.2c0.3-1,0.7-2,0.8-3.1c0.2-1.4-0.4-2.1-1.7-2.2c-1-0.1-2.1-0.4-3.1,0.5
	c-0.2,0.2-0.9,0-1.4-0.3c-0.5,0.2-1,0.4-1.4,0.7c-2,1.1-3.8,0.6-5.4-0.8c-1.5-1.3-1.9-3-1.4-4.9c0.2-0.7,0.4-1.4,0.6-2.1
	c0.7-2,2.2-3.2,4-4.1c-0.3-2.8,1.1-4.6,3.6-5.5c1-0.4,2.2-0.3,3.3-0.2c1.1,0.1,1.3,1,0.9,2.5c-0.4-0.1-0.7-0.3-1.1-0.4
	c-2.3-0.9-4.6,0.6-4.5,3.1c0.5,0.2,1.1,0.4,1.6,0.6c2,0.7,2.9,2.2,2.7,4.3c-0.1,0.8-0.3,1.5-0.5,2.3c-0.2,0.7-0.5,1.5-0.9,2.3
	c0.6,0.1,1.2,0.3,1.7,0.4c0.6,0.1,1.2,0.2,2,0.4c-0.4-0.9-0.6-1.7-1-2.4c-1.2-2.7-1.1-5.5-0.2-8.2c0.7-2.2,1.6-4.4,2.8-6.4
	c1.7-2.7,4.1-4.6,6.9-5.9c3.5-1.7,7.2-2.9,11.2-3.3c5.3-0.5,10.2,0.5,14.6,3.6c0.6,0.4,1.2,0.8,1.9,1.3c0.9-0.5,1.8-1.1,2.7-1.6
	c4.8-3,9.6-5.9,14.3-8.9c6.9-4.4,14.2-7.8,21.4-11.5c0.9-0.5,1.8-1,2.7-1.4c2.1-1.1,4.2-2.1,6.2-3.2c2-1.1,3.9-2.2,5.9-3.3
	c2.9-1.6,5.9-3.3,8.8-4.8c1.1-0.6,2.3-1,3.4-1.5c0.6-0.2,1.2-0.4,1.7-0.7c2.3-1.3,4.6-2.6,6.8-3.9c0.9-0.5,1.9-0.2,2.8,0.8
	c0.6,0.7,0.5,1.2-0.3,2c-5.4,5.9-11,11.6-16.3,17.7c-4.7,5.5-9.2,11.4-13.5,17.2c-3,4.1-5.5,8.5-8.3,12.7c-1.2,1.8-2.5,3.5-3.6,5.4
	c-1.3,2.1-2.5,4.2-3.7,6.2c1.8,2,3.5,3.9,5.3,5.9c0.8-0.8,1.9-0.8,3.1-0.5c2.5,0.7,5.1,1.2,7.6,2.1c3.3,1.1,6.5,2.5,9.7,3.8
	c1.1,0.5,2.4,0.8,3.2,1.6c0.7,0.8,0.8,2.2,1.2,3.3c0.6,1.8,1.4,3.5,1.7,5.3c0.5,2.5,0.7,5,0.8,7.5c0.2,3.5,0.3,7.1,0.2,10.6
	c-0.1,6-0.4,12-2,17.8c-0.5,2-1.3,4-2,6c-1.7,5.3-3.4,10.6-6,15.5c-1.5,2.8-2.9,5.8-4.4,8.6c-2.8,5.4-6.2,10.4-10.4,14.8
	c-2.1,2.3-4.2,4.6-6.4,6.8c-2.1,2.2-4.3,4.4-6.6,6.4c-1.6,1.4-3.4,2.4-5.1,3.6c-1.7,1.2-3.4,2.4-5.5,3.8c0.9,0.3,1.3,0.5,1.8,0.6
	c1.1,0.3,1.8,1,2.2,2.2c1.2,4.3-0.7,8-4.6,9.8c-3.4,1.5-6.9,3-10.7,3.5c-1.5,0.2-2.9,0.9-4.3,1.1c-2.5,0.4-5,0.5-7.5,0.8
	c-3,0.4-6,1-9.1,1.4c-1.6,0.2-3.2,0.2-4.8,0.5c-5.2,0.9-10.4,0.5-15.6,0.9c-3.3,0.3-6.6,0.5-9.9,0.5c-2.5,0-4.9-0.1-7.4,0
	c-4.3,0-8.5,0.2-12.7,0.1c-3,0-6-0.3-9-0.4c-3.2-0.1-6.3-0.1-9.5-0.4c-5-0.5-10-1.2-14.8-2.5c-2-0.6-4-1.5-5.9-2.5
	c-2.5-1.2-4.9-2.5-7.2-4c-1.3-0.8-2.5-1.9-3.5-3c-1.7-1.8-2.1-4.4-0.8-6.4c0.4-0.6,0.9-1.1,1.5-1.5c0.9-0.6,1.8-1.1,3-1.7
	c-1.7-1.6-3.2-3.2-4.8-4.7c-0.9-0.9-1.8-1.8-2.6-2.7c-4.5-4.9-9.2-9.8-13.6-14.8c-2.6-3-4.9-6.2-7.2-9.4c-1.9-2.7-3.7-5.5-5.2-8.3
	c-2.1-3.9-3.8-8-5.8-11.9c-2.9-5.7-4.9-11.7-6.4-17.9c-0.4-1.6-0.9-3.1-1.3-4.7c-1-4-1.3-8.1-1.5-12.3c-0.3-5.9,0.3-11.8,1-17.7
	c0.1-1.3,0.7-2.6,1.1-4c0.2-0.8,0.7-1.4,0.4-2.4C84.8,147,85.9,146.2,87.7,145.7z M219.2,155.5c0.1,0,0.1,0.1,0.2,0.1
	c0.6,1.3,1.9,1.9,3.1,2.7c0.7,0.4,1.4,0.1,2-0.4c1.1-1,1.7-2.3,2.2-3.7c0.3-0.8,0-1.4-1-1.7c-0.3,1.2-1,1.7-2.4,1.6
	c0-0.5-0.1-1.1,0-1.5c0.2-0.4,0.7-0.7,1.1-1c-2-1.2-4.1-1.2-6.1-0.3c-0.9,0.4-1.2,1-0.8,1.9C217.7,154.1,218.3,155,219.2,155.5z
	 M135.3,260.9c-1.2,0.1-2.4,0.1-3.5,0.2c-2.4,0.2-4,2.4-3.1,4.6c0.4,1,1.3,1.9,2.1,2.6c3.4,2.8,7.4,4.6,11.4,6.4
	c1.2,0.5,2.4,1.2,3.7,1.3c3.7,0.3,7.3,1.3,11,1.7c6,0.8,12.1,1,18.1,1.2c5.8,0.2,11.6-0.1,17.4-0.2c6.2-0.1,12.3-0.3,18.5-0.5
	c1.7-0.1,3.3-0.4,5-0.6c1.1-0.1,2.1-0.4,3.2-0.5c2.8-0.3,5.6-0.5,8.4-0.8c0.4,0,0.7-0.1,1.1-0.1c1.7-0.1,3.5,0,5.1-0.3
	c2.2-0.3,4.3-0.9,6.5-1.4c0.8-0.2,1.5-0.3,2.3-0.4c3.9-0.5,7.7-1,11.4-2.5c1.8-0.7,3.6-1.2,5.2-2.2c1-0.6,1.8-1.3,2.2-2.3
	c0.4-1.1,0.7-2.3,0.3-3.5c-0.4-1.1-1.4-1-2.2-1.3c-1.7-0.7-2.1-1.4-1.7-3.2c0.1-0.2,0.1-0.5,0.1-0.6c0.8-0.4,1.5-0.6,2.2-1.1
	c3.1-2,6.1-4,9.1-6c0.4-0.3,0.9-0.7,1.2-1c1.4-1.3,2.7-2.7,4.1-4c2.6-2.6,5.5-5.1,7.9-7.9c2.5-2.8,4.9-5.8,6.9-9
	c2.5-3.9,4.6-8,6.7-12.1c1.3-2.5,2.6-5,3.5-7.6c1.5-4.2,2.8-8.5,4.1-12.8c0.3-1.1,0.8-2.1,1.1-3.2c1.1-3.6,1.4-7.4,1.6-11.2
	c0.2-3.4,0.5-6.8,0.5-10.2c0-4.2-0.3-8.4-0.5-12.5c-0.1-2.7-0.9-5.3-1.7-7.7c-0.4,0.6-0.7,1.3-1.2,1.8c-1.6,1.4-3.2,2.9-5.2,3.8
	c-0.7,0.3-1.3,0.8-1.9,1.3c-2.2,2.1-4.9,3.5-7.7,4.5c-1.8,0.7-3.8,0.9-5.7,1.6c-3.6,1.3-7.1,2.9-10.7,4.2c-3.6,1.3-7,3.1-10.9,3.6
	c-1.7,0.2-3.3,0.8-4.9,1.1c-4.5,1-9.1,2.1-13.6,3.1c-2.5,0.5-5.1,1-7.7,1.4c-3.1,0.5-6.2,1-9.4,1.5c-2.5,0.4-5,0.7-7.5,1
	c-2.7,0.3-5.4,0.7-8,0.8c-5.2,0-10.4,0-15.6-0.3c-3.5-0.2-7-0.8-10.5-1.2c-2.8-0.4-5.5-0.9-8.3-1.3c-2.7-0.4-5.5-0.6-8.2-1
	c-1.8-0.3-3.6-0.7-5.5-1c-3-0.6-6-1.1-8.9-1.9c-3.6-1-7.2-2.1-10.8-3.2c-4.6-1.4-9.3-2.6-13.8-4.3c-8-3.1-16-6.5-23.9-9.7
	c-2.3-1-4.6-2-6.9-3c-1.6-0.7-3.1-1.4-4.7-2.2c-2-1-3.9-2.2-6-3.3c-0.3,0.6-0.5,1-0.6,1.4c-0.8,2.6-1.2,5.2-1.6,7.9
	c-0.6,5.1-0.5,10.2-0.3,15.2c0.2,4.1,0.9,8.2,2,12.2c1.7,6.2,3.3,12.5,6.1,18.4c3.4,7.1,6.6,14.4,11.2,20.9
	c2.6,3.7,5.1,7.4,8.2,10.7c3,3.2,6.2,6.4,9.1,9.7c4.2,4.7,8.6,9.1,13.4,13.2C135.1,259.1,135.4,259.8,135.3,260.9z M102.6,89.4
	c0.1-0.1,0.2-0.2,0.3-0.3c-0.2-0.5-0.5-0.9-0.7-1.4c-2.2-3.9-4.4-7.8-6.7-11.7c-3-5-6.1-9.9-9.3-14.7c-1.6-2.4-3.4-4.7-5.2-7.1
	c-1-1.4-1.8-2.8-3-4.1c-2.3-2.6-4.7-5.1-7.2-7.6c-3.1-3.2-6.6-5.5-11-6.3c-3.6-0.6-6.6,0.5-8.7,3.3c-2.4,3.2-2.7,7-1.1,10.6
	c1.5,3.5,3.6,6.9,6.1,9.9c0.7,0.8,1.4,1.5,2,2.3c2.1,2.7,4.2,5.4,6.2,8.2c2.6,3.7,5.2,7.4,7.7,11.3c2.4,3.7,4.9,7.3,7.9,10.4
	c2.1,2.2,4.4,4.2,6.4,6.5c2,2.2,3.7,4.5,5.6,6.8c1.5,1.8,3,3.6,4.6,5.3c1.5,1.6,3.1,3,4.5,4.6c4.9,5.6,9.9,11.1,15.3,16.1
	c1.6,1.5,3,3.2,4.5,4.9c2.5,2.9,5,5.7,7.5,8.6c1.9-0.8,3.7-1.5,5.7-2.3c-0.6-0.8-1-1.5-1.5-2.2c-5-8.4-10-16.7-15-25.1
	c-1.5-2.5-2.8-5-4.2-7.5c-0.4-0.7-0.7-1.5-1.1-2.3c-2.4-4.3-4.9-8.6-7.4-13c-0.5-0.8-0.9-1.6-1.4-2.5c-1,1.8-1.5,1.8-2.4,0.2
	c-0.1-0.2-0.2-0.3-0.3-0.5c-3-4.7-6-9.5-9.1-14.2c-1.8-2.7-3.6-5.4-5.4-8c-0.2-0.3-0.4-0.8-0.3-1.2c0-0.3,0.4-0.6,0.7-0.7
	c0.2-0.1,0.6,0.1,0.7,0.3c0.4,0.5,0.8,1.1,1.1,1.6c0.7,1.1,1.3,2.1,2,3.2c2.7,4,5.5,8,8.1,12C100,85.1,101.2,87.3,102.6,89.4z
	 M273.1,135.8c0.3-0.4,0.6-0.8,0.9-1.2c1.8-2.9,3.6-5.8,5.4-8.7c3.3-5.3,6.5-10.6,10.3-15.6c3.7-4.9,7.3-9.9,11.4-14.5
	c3.5-4.1,7.2-8,10.8-12c0.5-0.6,1-1.1,1.4-1.7c-0.7-0.5-1.2-0.9-1.7-1.3c-0.3,0.1-0.6,0.2-0.9,0.3c-4.5,1.8-8.6,4.2-12.7,6.6
	c-0.9,0.5-1.8,1.2-2.7,1.7c-3.1,1.4-6.1,3-9.1,4.6c-5.3,3-10.7,5.6-16.1,8.4c-6.3,3.3-12.4,6.9-18.4,10.9c-1.8,1.2-3.6,2.5-5.5,3.8
	c2.5,2.3,4.2,4.9,5.5,7.8c1.4,3.2,1.1,6.2,0.6,9.5C259.5,132,266.3,132.6,273.1,135.8z M241.4,117.8c-0.1-0.2-0.1-0.3-0.2-0.4
	c-0.2-0.2-0.4-0.3-0.5-0.5c-2.1-1.7-4.7-2.3-7.3-2.9c-2-0.5-4.1-0.9-6.2-0.6c-1.1,0.2-2.1,0.8-3.3,0.2c-0.1-0.1-0.4,0.1-0.7,0.2
	c-1,0.3-2.1,0.6-3,1.1c-1.8,0.8-3.6,1.7-5.2,2.7c-3,1.9-4.5,4.9-5.7,8c-0.7,1.8-1,3.7-0.8,5.6c0.4,3.5,2.4,6.2,4.6,8.7
	c0.8,0.9,1.8,1.5,2.7,2.4c2.6,2.7,5.7,4.5,9.1,6c3,1.4,6.2,1.9,9.4,0.8c2.1-0.7,4.2-1.8,6.3-2.7c0.4-0.2,0.9-0.5,1.2-0.8
	c3.6-2.9,6.2-6.5,7.9-10.9c2-5.2-0.4-10.5-3.7-13.7c-0.8-0.7-1.9-1.1-3-1.7c-1.6,1.5-3.3,3.1-5,4.7c0.6,1.1,1.2,2.1,1.7,3.1
	c0.1,0.3,0,0.8-0.1,1.1c-0.1,0.1-0.6,0.1-0.9-0.1c-0.8-0.3-1.6-0.8-2.3-1.2c-1.4,2.3-1.7,2.7-3.3,2.8c0.3-2.1,1.3-4.2-0.1-6.2
	c-0.9,0-1.8,0-2.8,0c-0.8,0-1.3-0.3-1.3-1.2c0-0.8,0.4-1.4,1.3-1.3c1.6,0.2,3.2,0.4,4.8,0.7c0.7,0.2,1.3,0.1,1.8-0.3
	C238.4,120.3,239.9,119,241.4,117.8z M264.9,147.8c-0.8,0.1-1.5,0.2-2.3,0.3c-0.3,0-0.6,0.2-0.9,0.2c-0.7,0-1.4-0.5-1.4-1.1
	c0-0.8,0.5-1,1.2-1.1c1.9-0.2,3.8-0.3,5.8-0.4c1.4-2.4,2.9-4.9,4.4-7.5c-0.4-0.3-0.6-0.4-0.8-0.5c-0.2-0.1-0.4-0.2-0.6-0.3
	c-3.5-1.2-7-2-10.7-1.7c-2.7,0.2-5.6,0.1-7.6,2.5c0,0-0.1,0.1-0.2,0.1c-1.5-0.1-1.7,1.2-2.3,2.1c-0.5,0.8-0.9,1.7-1.6,2.4
	c-2,2.1-3.9,4.4-6.2,5.9c-0.2,1.1-0.3,1.9-0.5,2.8c-0.5,2.6-0.6,5.2,0.4,7.8c1.3,3.3,3.8,5.8,6.3,8.1c1.1,1,2.5,1.9,3.9,2.6
	c1.6,0.7,3.3,1.1,4.9,1.6c0.8,0.2,1.6,0.3,2.4,0.2c4.9-0.8,9.5-2.5,14.1-4.3c1.6-0.6,3.2-1.2,4.3-2.7c0.3-0.3,0.8-0.6,1.2-0.7
	c1.4-0.3,2-1.3,2.3-2.5c0.4-1.4,0.8-2.9,1.1-4.3c0.1-0.7,0.1-1.4,0.1-2.1c0-2.4-1.1-4.5-1.9-6.7c-0.9-2.3-2.2-4.4-3.9-6.2
	c-0.7-0.8-1.5-1.6-2.5-2.7c-1.5,2.7-2.9,5-4.2,7.4c-0.2,0.3,0,0.9,0.1,1.3c0.3,0.8,0.7,1.5,1,2.2c-1,1-1.6-0.1-2.2-0.1
	c-0.4,0.8-0.7,1.6-1.3,2.1c-0.5,0.5-1,1.5-2.1,0.6C266.3,151.1,265.9,149.5,264.9,147.8z M169.9,119c-1.3,0.1-2.6,0.1-3.9,0.4
	c-1.7,0.4-3.5,0.9-5.2,1.3c-2,0.5-3.5,1.6-5.1,2.9c-0.7,0.6-1.6,1.2-2.4,1.4c-1.6,0.4-2.1,1.6-2.4,2.8c-0.2,1.2-0.1,2.5,0,3.7
	c0.3,2,1.5,3.6,2.8,5.1c4.4,5.3,10.4,7.4,16.9,8.2c5.9,0.7,11.8-0.1,17.3-2.8c2.9-1.4,4.2-4.2,3.6-6.9c-0.7-3.6-2-6.9-5.1-9.1
	c-0.3-0.2-0.5-0.5-0.8-0.8c-2-2.5-4.8-3.7-7.9-4.5c-0.6-0.2-1.2-0.2-1.7-0.5C174.1,119.3,172,119.1,169.9,119z M146.8,171
	c0.2-1.1,0.4-2,0.5-2.8c0.2-1.9-1.5-3.7-3.4-3.8c-2.5-0.1-4.7-0.9-6.7-2.4c-3-2.2-2.1-6,0.6-7.1c2.8-1.2,5.4-1.4,8,0.6
	c0.2,0.2,0.6,0.5,0.8,0.4c0.6-0.3,1.2-0.4,1.6,0.3c0.3,0.5,0.5,1.1,0.7,1.6c0.2,0.7,0.3,1.4,0.4,2.1c0.2,0.7,0.6,1,1.4,0.6
	c-0.8-2.3,1.6-2.7,2.6-4.2c-1.6-0.1-2.9-0.6-3.8-1.7c-0.8-0.9-1-2.4-2.5-2.8c-0.1,0-0.1-0.2-0.2-0.3c-0.8-2-2.3-3.4-4-4.5
	c-2-1.3-4.2-2.5-6.7-2.3c-3.2,0.2-5.9,1.8-8.6,3.5c0.9,0.3,1.8,0.3,2.6,0.5c2.7,0.5,4,1.8,4.3,4.5c0.3,2.3,0,4.5-1.5,6.4
	c2.9,2.2,5.5,4.6,4.8,8.8C140.6,169.2,143.5,170.1,146.8,171z M238,175.8c-1.2-3.5-1.9-4.2-5-4.7c-1.1,0.5-2,1-3,1.5
	c0.4,0.7,0.8,1.5,1.2,2.4c-0.8,0.3-1.4,0.6-2.1,0.9c-0.4-0.7-0.8-1.2-1.1-1.7c-0.8-1.3-1.4-2.7-2.3-3.8c-0.7-0.9-1.5-2.2-3.1-1.1
	c-0.1,0.1-0.4,0-0.5-0.1c-0.6-0.7-1.1-0.1-1.5,0.2c-1.3,0.8-2.5,1.9-3.9,2.5c-2.6,1.2-5.4,2.5-8.2,0.4c-0.1-0.1-0.2,0-0.4,0
	c-0.4,1-0.9,2-1.4,3.1c2.2,0.6,2.9,2.6,4.2,4C215.6,179.6,232.6,177.2,238,175.8z M185.6,178.2c0.2-0.8,0.7-1,1.4-1
	c0.9-0.1,1.7-0.4,2.6-0.7c-0.1-1.2-0.6-1.8-1.4-2.4c-0.6-0.5-1.3-0.9-1.8-1.4c-1.2-1-1.2-2-0.1-3c0.4-0.4,0.8-0.8,1.3-1.2
	c-1.3-2-2.9-2.2-4.4-0.6c-0.4,0.5-0.9,0.9-1.5,1.3c-1.8,1.1-4.7,1.1-6.1-1c-1.2-1.7-2.7-2.4-4.7-2.2c-0.9,0.8-1.7,1.5-2.7,2.3
	c0.5,0.7,1,1.4,1.4,2.1c0.9,1.5,0.6,2.8-0.9,3.8c-0.6,0.4-1.2,0.7-2,1.1c0.4,0.2,0.5,0.3,0.7,0.4
	C173.3,176.5,179.3,177.3,185.6,178.2z M228,151.4c1.2,1.4,0.8,2.6,0.1,3.7c-0.6,1.1-1.1,2.3-1.6,3.5c3.6-0.9,6.9-0.7,9.4,2.1
	c1.3,0,2.4,0,3.3,0c-0.3-1.9-0.8-3.7-0.9-5.5c-0.1-1.8,0.3-3.6,0.4-5.7C235.4,151.4,231.9,151.9,228,151.4z M199.1,164.8
	c-0.1-0.8,0-1.5-0.3-2.2c-0.2-0.4-0.8-0.6-1.2-1c-1.6-1.3-2.2-1.4-3.8,0c-1.7,1.4-2.5,3.2-2.9,5.2c-0.4,2.1,1.1,3.8,3.2,3.8
	c0.5,0,1.1,0,1.6,0c1.7-0.1,2.6-0.7,2.9-2.4C198.8,167.1,198.9,166,199.1,164.8z M245.9,169.1c-1.8-2.2-3.3-4-4.9-5.8
	c-0.4-0.4-3.6-0.9-4.1-0.6c-0.3,0.2-0.5,0.5-0.7,0.8c-1.3,1.3-1.5,3-2.2,4.6c-0.3,0.6-0.1,1.1,0.6,1.4c0.9,0.4,1.8,0.8,2.8,1.3
	C239.7,168.6,242.6,168.8,245.9,169.1z M232.3,168.6c0.6-1.7,1.3-3.3,1.8-5c0.4-1.4,0-2-1.3-2.8c-1.5-0.8-3.1-0.9-4.7-0.5
	c-3.4,0.9-3.8,5-2,7c0.6,0.6,1.3,1.2,1.8,1.6C229.4,168.9,230.7,168.7,232.3,168.6z M168,158.5c0.1-0.9,0.2-1.5,0.2-2.1
	c0-0.6,0-1.3-0.2-1.9c-0.8-2.1-2.1-3.9-4.5-4.5c-0.3-0.1-0.8-0.3-0.9-0.5c-0.4-1.5-1.6-1.3-2.7-1.4c0.9,2.6,0.8,4.9-0.5,7.1
	c2.2,0.4,4.2,0.9,5.6,2.7c0.2,0.3,0.7,0.4,1.1,0.4C166.7,158.5,167.3,158.5,168,158.5z M189,170.1c-0.7,1.1-0.7,1-0.1,1.7
	c0.9,1,2,1.9,2.8,3c1,1.4,0.7,2.3-0.8,3.2c-0.3,0.2-0.6,0.4-1.2,0.8c3.4,0.5,6.4,0.8,9.6,0.6c0-0.9,0.1-1.7,0-2.4
	c-0.4-3-2.6-4.7-5.6-4.4c-0.2,0-0.4,0.1-0.5,0.1c-0.5-0.1-1.1-0.1-1.4-0.4C190.8,171.7,189.9,170.9,189,170.1z M220.1,167.1
	c1.5-0.7,1.6-0.8,1.6-2.1c0-2.7-1.1-4.9-3.5-6.3c-2.4-1.4-4.8-2.2-7.4-0.5c0.6,1.4,1.2,2.7,1.8,4.1
	C216.8,162.2,218.2,163,220.1,167.1z M201.5,128.2c-3.7,0.5-6.4,5.3-5.1,8.5c0.4,1,1.4,1.8,2.5,1.6c1-0.2,2-0.6,2.7-1.2
	c1.7-1.6,2.4-3.8,2.3-6.2c0-0.5-0.4-1-0.6-1.6c-1.4,0.3-1.8,1.2-2,2.3c-0.1,0.7-0.2,1.3-1,1.2c-0.8-0.2-0.9-0.9-0.7-1.6
	c0.2-0.6,0.5-1.2,0.8-1.8C200.8,128.9,201.2,128.6,201.5,128.2z M124.1,163.5c3.7,1.9,7.5,3,11.7,4c-0.3-1.1-0.4-2.2-0.9-3
	c-1.6-2.3-3.8-3.8-6.6-4.3c-2.5-0.4-3.5,0.3-4.1,2.7C124.2,163.1,124.2,163.3,124.1,163.5z M290.9,148.6c1.9-0.4,3.6,0.1,5.2,1
	c1.8,1,1.9,3,2.6,4.9c1.4-1.3,2.7-2.5,4.2-3.8c-7-3.6-14-5.9-21.9-6.9c0.6,1.1,1,1.9,1.4,2.6C286.2,144.4,288.5,145,290.9,148.6z
	 M143.9,134.1c-0.4-0.2-0.7-0.4-1.1-0.5c-1.7-0.3-5.2,1.4-6,3c-0.8,1.6-0.6,2.9,1.3,3.6c1.8,0.7,3.6,0.8,5.5,0.5
	c0.8-0.1,1.7-0.4,1.9-1.4c0.2-1.2-0.2-2.3-1.1-3c-0.7-0.6-1.5-0.8-2.5-0.3c-0.6,0.3-1.3,0.6-2.1,0.9
	C139.6,134.9,139.8,134.8,143.9,134.1z M154.7,167.8c-0.1-2.6-1.9-3.7-3.8-4.6c-1.2-0.6-2.7-0.5-3.8,0.8c2.4,1.1,2.6,3,2.1,5.3
	c-0.2,0.7-0.3,1.5-0.4,2.3c1.6,0.5,3,0.9,4.6,1.4C152.4,170.1,152.4,170.1,154.7,167.8z M154.3,173.1c1.6,0.7,8.6,2,10,1.8
	c0-1.9-1.1-3.4-2.2-4.8c-0.3-0.4-0.9-0.9-1.5-1c-1.5-0.3-3-0.3-4.4,0.4c-0.8,0.4-1.5,0.9-1.5,2C154.9,172,154.6,172.5,154.3,173.1z
	 M124.6,150c-0.2,0.7-0.4,1-0.5,1.4c-0.2,2.1,1.5,5.3,3.5,6c3,1,4.7,0.7,4.6-2.8c0-0.8-0.2-1.7-0.5-2.4c-0.1-0.4-0.5-0.9-0.9-1.1
	c-1.6-0.7-3.2-1.4-4.8,0c-0.2,0.1-0.4,0.2-0.7,0.3C125.2,150.9,125,150.6,124.6,150z M154.8,154.9c0.8-0.2,1.6-0.3,2.4-0.6
	c1.4-0.5,2.2-3.8,1.1-4.9c-0.2-0.2-0.6-0.5-0.9-0.5c-2.3-0.4-4.4,0.4-6.1,1.9c-1.4,1.2-0.8,3,1,3.6
	C153,154.6,153.9,154.7,154.8,154.9z M207.4,167.4c0.6,1,1,1.9,1.6,2.7c0.7,1.1,2.8,1.9,3.8,1.5c0.8-0.3,1.7-0.6,2.5-1
	c0.8-0.3,1.6-0.6,1.3-1.8c-0.1-0.2,0.2-0.5,0.4-0.7c0.8-1.1,0.7-2.1-0.3-2.9c-1.4-1.1-3.1-0.8-4.6-1c-0.2,0-0.4,0.2-0.6,0.4
	C210.5,166,209.2,166.8,207.4,167.4z M290.9,159.5c-0.1-2.2-0.9-3.8-2.7-4.8c-1.1-0.6-2.2-0.6-3,0.1c-0.3,1.3-0.5,2.4-0.7,3.5
	c-0.3,1.1-0.5,2.3-0.9,3.6C286.2,161.4,288.6,160.9,290.9,159.5z M184.2,146.5c-0.1-0.1-0.1-0.2-0.2-0.3c-2.6,0.3-5.3,0.8-7.9,1
	c-2.4,0.1-4.8,0.1-7.2-0.2c-2.5-0.4-4.9-1.1-7.3-1.9c-3-1.1-5.8-2.5-8.1-4.8c-0.9-1-1.8-2-3.1-3.3c0,0.8-0.2,1.3,0,1.6
	c0.4,0.8,0.9,1.6,1.5,2.2c3.7,3.6,8.4,5.5,13.4,6.5c2.6,0.5,5.2,0.6,7.9,0.7c3.1,0.2,6.2,0.1,9.3-0.7
	C183.1,147,183.6,146.7,184.2,146.5z M144.6,162.3c0.4-0.2,1.2-0.3,1.8-0.7c0.9-0.5,1-2.4,0.1-2.8c-0.8-0.3-1.2-1-1.7-1.5
	c-1.6-1.4-3.3-1.5-5.2-0.8c-0.8,0.3-1.6,0.8-1.7,1.9c-0.1,1,0.5,1.7,1.3,2.2C140.6,161.7,142.4,162.1,144.6,162.3z M240.3,175.7
	c2.2-0.4,4.2-0.8,6.2-1.2c0.8-0.1,1.2-0.7,1.3-1.3c0.1-0.7-0.3-1.2-1-1.5c-2.1-1-4.2-1.1-6.4-0.3c-1.1,0.4-1.4,1.1-1,2.3
	C239.6,174.3,239.9,174.9,240.3,175.7z M142.4,144.3c3.1,1.1,4.7,3.7,6.6,5.9c1.7-0.9,1.8-2.3,1.6-3.8c-0.1-1.4-2-3.5-3.2-3.5
	C145.8,142.9,144.1,143.2,142.4,144.3z M200.9,143.5c-0.7,0.1-1.5,0.2-2.3,0.4c-1.8,0.4-2.3,1.8-1.1,3.1c1,1.2,2.5,1.9,4,2.2
	c1.1,0.2,1.7-1,2.5-1.5c0.2-0.1,0.3-0.2,0.4-0.3c0.7-0.7,0.7-1.1-0.2-1.8c-0.3-0.3-0.7-0.5-0.9-0.9
	C202.8,143.8,201.9,143.7,200.9,143.5z M288.5,152.4c0.7-1.7,0.5-3.4-0.4-4.2c-1.4-1.3-2.4-1.2-4.8,0.2c0.5,1.5,1,2.9,1.5,4.3
	C286,152.6,287.2,152.5,288.5,152.4z M163.1,158.8c-1.9-1.4-3.8-1.5-5.7-1.1c-1.4,0.3-3,0.4-4.2,2c1.6,0.2,3,0.2,4.2,0.6
	c1.5,0.5,2.7,0.1,3.9-0.4C161.9,159.5,162.4,159.2,163.1,158.8z M208,179.9c-0.8-2.9-3.7-3.1-6.5-0.3
	C203.8,179.8,205.8,179.5,208,179.9z M123.1,159.8c0.8-0.6,1.4-1,1.9-1.4c-0.9-1.2-1.8-2.5-2.8-3.8c-0.6,0.3-1.2,0.6-2,0.9
	C121,157.2,123,157.8,123.1,159.8z M166.8,174c0.6-0.4,1.2-0.7,1.7-0.9c0.1-1.6-1.2-2.3-1.7-3.4c-0.4-1-1.1-1.1-1.9-1.1
	C165.5,170.3,166.1,172,166.8,174z M153.5,161.7c0.9,2,3.6,2.6,3.3,5.3c0.6-0.1,1-0.1,1.5-0.2c-1.2-1.4-1.8-2.8-1.1-4.5
	C156,162.1,154.6,162.8,153.5,161.7z M156.4,146.9c0-0.1,0.1-0.3,0.1-0.4c-1.3-0.6-2.5-1.2-4-1.9c0.2,1.2,0.3,2.1,0.5,3
	c0.6-0.2,1.2-0.3,1.7-0.4C155.2,147,155.8,147,156.4,146.9z M252.3,173.3c0-0.2,0-0.3,0-0.5c-0.9-0.3-1.8-0.7-2.8-1
	c0.1,0.8,0.1,1.4,0.2,2C250.6,173.7,251.5,173.5,252.3,173.3z M117.5,148.7c1.1,0.2,2.1,0.3,3,0.5c0-0.1,0-0.1,0.1-0.2
	c-0.7-0.4-1.5-0.9-2.3-1.4C118.1,147.9,117.9,148.2,117.5,148.7z M147.6,138.9c-0.4,0.9-0.7,1.4-1.1,2.2c0.9-0.1,1.4-0.2,2.1-0.3
	C148.3,140.3,148,139.8,147.6,138.9z M223.3,162.5c0.4-0.9,0.7-1.5,1.1-2.3c-0.8,0.1-1.4,0.2-2,0.4
	C222.7,161.1,223,161.7,223.3,162.5z"/>
<path d="M61.6,182.9c0.3,0.5,0.4,0.8,0.6,0.9c1.5,0.8,2,2.2,2.5,3.6c0.7,1.9-0.2,4-2.1,4.7c-2.2,0.8-4.3,0.4-6-1.2
	c-1.1-1-2.1-2.2-2.9-3.4c-0.4-0.6-0.9-0.8-1.5-0.6c-0.6,0.2-1,0.6-1,1.3c0.1,1.1,0.2,2.1,0.3,3.2c0.3,2.5-0.5,3.5-3,3.8
	c-2.6,0.4-4.9-0.3-6.9-1.9c-1.5-1.2-1.9-2.9-1.4-4.7c0.2-0.6,0.5-1.2,0.6-1.9c0.2-1-0.1-1.4-1.1-1.4c-1.1-0.1-2.1,0-3.2,0.1
	c-2.3,0.2-4-0.9-4.8-3c-0.2-0.7-0.3-1.6,0-2.2c1.3-3,3.7-4.9,6.9-5.7c1.3-0.3,2.6-0.1,3.9,0.4c1.6,0.5,2.9-0.1,3.5-1.6
	c0.3-0.7,0.5-1.3,0.7-2c0.6-2.3,3.1-4.1,5.5-3.4c0.6,0.2,1.3,0.2,1.9,0.5c2.1,0.9,2.7,3.3,2.1,5.3c-0.2,0.6-0.5,1.2-0.6,1.9
	c-0.2,1,0.5,1.5,1.4,1.1c0.5-0.3,1-0.7,1.5-1c2.6-2,6.6-2.1,9.2-0.3c0.8,0.6,1.9,3.2,1.5,4.1c-0.2,0.5-0.6,1.1-1,1.4
	c-1.4,0.8-2.9,1.7-4.7,1.6C63.1,182.3,62.4,182.7,61.6,182.9z M40.2,183.1c0.3,0.1,1,0.2,1.6,0.4c1.7,0.8,2.2,2,1.6,3.8
	c-0.5,1.4-1,2.7-0.2,4.1c0.8,1.5,3.9,2.4,5.5,1.7c0.6-0.2,0.9-0.6,0.8-1.2c-0.1-1.1-0.3-2.1-0.4-3.2c-0.3-2,0.8-3.5,2.9-3.8
	c2.3-0.3,3,0.1,4.3,2c0.6,1,1.5,1.9,2.3,2.7c0.3,0.3,0.8,0.5,1.2,0.7c1.1,0.4,2.3,0.1,2.9-0.7c0.5-0.7,0.3-1.9-0.4-2.8
	c-0.7-0.9-1.5-1.7-2.3-2.5c-1-1.1-0.9-2,0.3-2.8c1.1-0.8,2.2-1.3,3.6-1.4c0.9,0,1.7-0.3,2.6-0.6c0.7-0.2,0.9-0.7,0.6-1.4
	c-0.6-1.4-1.6-2.1-3.1-2.1c-1.7,0-3.2,0.4-4.4,1.7c-0.8,0.8-1.7,1.3-2.8,1.5c-0.9,0.1-1.5-0.1-2.1-0.7c-1.4-1.3-1.5-2.4-0.8-4.2
	c0.2-0.5,0.4-1,0.6-1.5c0.1-0.3,0.1-0.6,0.1-0.9c-0.3-1-1.3-1.7-2.7-1.8c-1.3-0.1-1.8,0.2-2.3,1.4c-0.3,0.6-0.6,1.2-0.7,1.8
	c-0.4,3-4.1,4.8-6.8,3.6c-3.2-1.4-5.9,0.6-7.5,2.6c-1,1.3-0.7,2.6,0.7,3.3c0.6,0.3,1.4,0.4,2.1,0.4C38.1,183.5,39,183.3,40.2,183.1z
	"/>
<path d="M70.7,147c0.3,0.8,0.7,1.7,1,2.5c1.7,4.1,0.4,7-3.2,9.1c-2.5,1.4-5.2,1.9-8.1,1.3c-1.7-0.4-3.6-0.4-5-1.6
	c-0.6-0.4-1.2-0.8-1.7-1.3c-2.1-1.8-2.4-3.8-1.1-6.3c1.6-2.9,4.2-4.3,7.3-5c3-0.6,5.9-0.5,8.8,0.6C69.3,146.7,70,146.8,70.7,147z"/>
<path d="M52.2,146.2c-0.4,0-0.8,0.1-0.9,0c-1.2-1-1.9-2.3-2.3-3.8c-0.1-0.3,0-0.6,0.1-0.9c0.9-3,3.2-5,6.4-4.4
	c1.6,0.3,3.3,0.6,4.5,2c0.7,0.9,1.6,0.7,2.2-0.2c0.4-0.8,0.7-1.6,1-2.5c0.3-0.9,0.5-1.8,0.6-2.8c0.3-2.4,2.1-3.5,4.1-4.4
	c0.4-0.2,1-0.2,1.4-0.1c2.2,0.5,4.4,1.2,6.1,2.7c0.2,0.2,0.4,0.3,0.5,0.5c2.1,2.9,1.6,4.2-1,6.6c-0.7,0.6-1.5,1.2-2.2,1.8
	c-1.5,1.3-1.4,2.3,0.2,3.5c0.3,0.2,0.5,0.8,0.4,1.2c-0.1,0.6-0.7,0.7-1.3,0.5c-1.1-0.4-2.1-1-2.4-2.2c-0.5-1.5,0-2.9,1.1-3.9
	c0.9-0.9,2-1.7,3-2.5c1.7-1.3,1.9-2.3,0.5-3.9c-1.5-1.7-3.5-2.5-5.8-2.3c-1.5,0.1-2.6,1.5-3,3.3c-0.4,1.6-0.8,3.2-1.4,4.8
	c-1,2.5-4.1,2.9-5.8,0.9c-1.8-2-5.4-2.6-7.2,0.2c-0.8,1.3-0.9,2.5-0.1,3.8C51.2,145,51.7,145.5,52.2,146.2z"/>
<path d="M29.6,162.4c2-0.4,3.6,0.8,5.2,1.7c0.8,0.4,1.3,1.3,1.1,2.3c-0.1,1.1-0.2,2.3-0.4,3.4c-0.8,3.7-4.3,6.2-8.2,6
	c-2.5-0.1-4.8-0.9-6.7-2.5c-2.1-1.8-2.9-5.8,0.8-8c1.7-1,3.7-1.7,5.6-2.4C27.8,162.6,28.7,162.6,29.6,162.4z M26.7,173.7
	c3.4,0.2,6.2-1.6,6.7-4.6c0.5-2.6-0.4-4-3-4.5c-0.5-0.1-1.1-0.1-1.6,0c-2.2,0.4-4.2,1.3-6.1,2.5c-1.8,1.2-1.9,3.4-0.2,4.9
	C23.9,173.2,25.6,173.5,26.7,173.7z"/>
<path d="M176,154.3c0.5,0.2,1.1,0.3,1.5,0.7c2.1,2.1,4.6,1.9,7,1.3c1.1-0.3,2.1-0.9,3-1.6c2.3-1.7,4.5-3.5,7.6-3.8
	c1.7-0.2,3.2-0.1,4.6,1c0.8,0.6,0.8,1.1,0.3,1.9c-0.5,0.8-1.2,0.5-1.7,0.1c-2-1.7-4-0.9-5.8,0c-1.4,0.7-2.7,1.8-4,2.7
	c-3.2,2.4-6.6,2.7-10.1,1.2c-0.8-0.4-1.8-0.6-2.3-1.5C175.5,155.6,175.3,155.1,176,154.3z"/>
<path d="M87.3,145.2c0.6-0.4,0.8-0.6,1-0.7c3.9-1.4,7.7-2.9,11.6-4.2c3.9-1.2,7.8-2.1,11.9-2.7c1.4-0.2,2.8-0.5,4.2-0.8
	c1-0.2,1.7,0.1,1.8,1.4c-0.4,0.2-0.8,0.5-1.3,0.6c-6.2,0.5-12.2,1.9-18.2,3.7c-2.5,0.8-4.9,2-7.3,3c-0.9,0.4-1.7,1-2.4-0.2
	C88.5,145.2,88,145.3,87.3,145.2z"/>
<path d="M64.7,168.4c-0.3-0.1-0.6-0.1-0.8-0.2c-0.2-0.1-0.4-0.2-0.7-0.2c0-0.3-0.1-0.6,0-0.7c1.3-2,2.7-3.9,4.8-5.2
	c0.8-0.5,1.6-1,2.4-1.6c0.1-0.1,0.2-0.2,0.3-0.2c0.8-0.5,1.6-0.4,1.9,0.1c0.4,0.5,0,1.1-0.9,1.7c-1.1,0.7-2.2,1.3-3.3,2
	C66.7,165,65.9,166.7,64.7,168.4z"/>
<path d="M73.2,165.4c-0.6,0.4-1,1-1.5,1c-1.7,0.2-2.5,1.4-3.3,2.6c-0.2,0.3-0.4,0.9-0.7,1c-0.4,0.1-1.1,0.1-1.4-0.1
	c-0.4-0.2-0.5-0.8-0.1-1.3c0.8-0.9,1.6-1.8,2.4-2.6c0.6-0.5,1.3-0.9,1.9-1.3C71.7,163.9,71.9,164,73.2,165.4z"/>
<path d="M52.6,146.3c0.7,0.2,1.1,0.3,1.6,0.5C53.5,147.1,53.5,147.1,52.6,146.3z"/>
<path class="st0" d="M135.3,260.9c0.1-1.1-0.2-1.8-0.9-2.4c-4.8-4.1-9.2-8.5-13.4-13.2c-2.9-3.3-6.1-6.4-9.1-9.7
	c-3.1-3.3-5.6-7-8.2-10.7c-4.6-6.5-7.7-13.7-11.2-20.9c-2.8-5.9-4.4-12.1-6.1-18.4c-1.1-4-1.8-8.1-2-12.2
	c-0.2-5.1-0.3-10.2,0.3-15.2c0.3-2.7,0.8-5.3,1.6-7.9c0.1-0.4,0.3-0.8,0.6-1.4c2.1,1.1,4,2.3,6,3.3c1.5,0.8,3.1,1.5,4.7,2.2
	c2.3,1,4.6,2.1,6.9,3c8,3.3,15.9,6.7,23.9,9.7c4.5,1.7,9.2,2.9,13.8,4.3c3.6,1.1,7.2,2.2,10.8,3.2c2.9,0.8,5.9,1.3,8.9,1.9
	c1.8,0.4,3.6,0.8,5.5,1c2.7,0.4,5.4,0.6,8.2,1c2.8,0.4,5.5,1,8.3,1.3c3.5,0.5,7,1,10.5,1.2c5.2,0.3,10.4,0.4,15.6,0.3
	c2.7,0,5.4-0.5,8-0.8c2.5-0.3,5-0.6,7.5-1c3.1-0.5,6.3-0.9,9.4-1.5c2.6-0.4,5.1-0.9,7.7-1.4c4.6-1,9.1-2,13.6-3.1
	c1.6-0.4,3.2-0.9,4.9-1.1c3.8-0.6,7.3-2.3,10.9-3.6c3.6-1.3,7.1-2.9,10.7-4.2c1.8-0.7,3.8-0.9,5.7-1.6c2.8-1.1,5.4-2.5,7.7-4.5
	c0.6-0.5,1.2-1,1.9-1.3c2-0.9,3.6-2.3,5.2-3.8c0.5-0.4,0.8-1.1,1.2-1.8c0.9,2.4,1.6,5,1.7,7.7c0.2,4.2,0.5,8.4,0.5,12.5
	c0,3.4-0.2,6.8-0.5,10.2c-0.3,3.8-0.5,7.5-1.6,11.2c-0.3,1.1-0.7,2.1-1.1,3.2c-1.4,4.3-2.6,8.6-4.1,12.8c-1,2.6-2.2,5.2-3.5,7.6
	c-2.1,4.1-4.2,8.2-6.7,12.1c-2,3.2-4.4,6.2-6.9,9c-2.5,2.8-5.3,5.2-7.9,7.9c-1.4,1.3-2.7,2.7-4.1,4c-0.4,0.4-0.8,0.7-1.2,1
	c-3,2-6.1,4.1-9.1,6c-0.6,0.4-1.4,0.7-2.2,1.1c0,0.2-0.1,0.4-0.1,0.6c-0.4,1.8,0,2.4,1.7,3.2c0.8,0.3,1.8,0.2,2.2,1.3
	c0.4,1.2,0.1,2.4-0.3,3.5c-0.4,1-1.2,1.7-2.2,2.3c-1.6,1-3.5,1.5-5.2,2.2c-3.7,1.5-7.5,2-11.4,2.5c-0.8,0.1-1.5,0.3-2.3,0.4
	c-2.2,0.5-4.3,1.1-6.5,1.4c-1.7,0.3-3.4,0.2-5.1,0.3c-0.4,0-0.7,0.1-1.1,0.1c-2.8,0.2-5.6,0.5-8.4,0.8c-1.1,0.1-2.1,0.4-3.2,0.5
	c-1.7,0.2-3.3,0.6-5,0.6c-6.2,0.2-12.3,0.4-18.5,0.5c-5.8,0.1-11.6,0.4-17.4,0.2c-6-0.2-12.1-0.4-18.1-1.2c-3.7-0.5-7.3-1.4-11-1.7
	c-1.3-0.1-2.5-0.8-3.7-1.3c-4-1.8-8-3.6-11.4-6.4c-0.9-0.7-1.7-1.6-2.1-2.6c-0.9-2.1,0.7-4.3,3.1-4.6
	C132.9,261,134.1,260.9,135.3,260.9z M200.6,263.5C200.6,263.5,200.6,263.5,200.6,263.5c-1.7,0.1-3.5,0.1-5.2,0.1
	c-0.9,0-1.5,0.4-2,1c-0.6,0.8-0.5,1.4,0.5,1.5c1.5,0.2,3,0.3,4.5,0.2c3.2-0.2,6.3-0.4,9.5,0.1c0.8,0.1,1.6,0,2.3,0
	c1.9-0.1,3.8-0.2,5.7-0.4c2-0.2,4-0.4,6-0.7c1.1-0.1,2.1-0.4,3.2-0.6c4.6-0.8,9.1-1.6,13.7-2.5c0.8-0.1,1-0.9,0.6-1.5
	c-0.4-0.6-1-0.6-1.6-0.5c-5.3,0.9-10.6,2-15.9,2.7c-4.3,0.5-8.6,0.6-12.9,0.9c-0.5,0-1,0-1.4,0C205.2,263.7,202.9,263.6,200.6,263.5
	z M184.6,271c0,0,0.6-0.2,0.6-0.4c0.1-0.4-0.1-1-0.3-1.3c-0.2-0.3-0.7-0.4-1.1-0.4c-4.6,0.4-9.2-0.2-13.8-0.8
	c-1.8-0.2-3.7-0.6-5.5-0.8c-4.9-0.5-9.7-1.3-14.3-3.3c-0.4-0.2-1.1-0.2-1.3,0c-0.3,0.3-0.5,1-0.3,1.4c0.2,0.5,0.7,1.2,1.3,1.3
	c3,0.8,6,1.7,9,2.2c3.2,0.5,6.4,0.7,9.6,1.1c1.2,0.1,2.5,0.3,3.7,0.4C176.3,270.8,180.2,270.9,184.6,271z"/>
<path class="st0" d="M102.6,89.4c-1.3-2.1-2.6-4.3-3.9-6.4c-2.7-4-5.4-8-8.1-12c-0.7-1-1.3-2.1-2-3.2c-0.4-0.6-0.7-1.1-1.1-1.6
	c-0.2-0.2-0.6-0.4-0.7-0.3c-0.3,0.1-0.6,0.5-0.7,0.7c0,0.4,0.1,0.8,0.3,1.2c1.8,2.7,3.6,5.3,5.4,8c3.1,4.7,6,9.5,9.1,14.2
	c0.1,0.2,0.2,0.3,0.3,0.5c1,1.6,1.4,1.6,2.4-0.2c0.5,0.9,1,1.7,1.4,2.5c2.5,4.3,4.9,8.6,7.4,13c0.4,0.7,0.7,1.5,1.1,2.3
	c1.4,2.5,2.7,5,4.2,7.5c5,8.4,10,16.8,15,25.1c0.4,0.7,0.9,1.4,1.5,2.2c-2,0.8-3.8,1.5-5.7,2.3c-2.5-2.8-4.9-5.7-7.5-8.6
	c-1.5-1.7-2.9-3.4-4.5-4.9c-5.5-5-10.4-10.6-15.3-16.1c-1.4-1.6-3-3-4.5-4.6c-1.6-1.7-3.1-3.5-4.6-5.3c-1.9-2.2-3.7-4.6-5.6-6.8
	c-2.1-2.3-4.3-4.3-6.4-6.5c-3-3.2-5.5-6.7-7.9-10.4c-2.4-3.8-5-7.6-7.7-11.3c-2-2.8-4.1-5.5-6.2-8.2c-0.6-0.8-1.4-1.5-2-2.3
	c-2.5-3-4.6-6.3-6.1-9.9c-1.6-3.6-1.3-7.4,1.1-10.6c2.1-2.8,5.1-4,8.7-3.3c4.4,0.8,8,3.1,11,6.3c2.4,2.5,4.8,5,7.2,7.6
	c1.1,1.2,2,2.7,3,4.1c1.7,2.4,3.6,4.7,5.2,7.1c3.2,4.9,6.3,9.8,9.3,14.7c2.3,3.8,4.5,7.8,6.7,11.7c0.3,0.4,0.5,0.9,0.7,1.4
	C102.8,89.2,102.7,89.3,102.6,89.4z M92.6,83.2c0.4-1.6,0.4-1.6-0.3-2.5c-0.8-1.2-1.6-2.4-2.4-3.6c-1.5-2.4-3-4.8-4.5-7.1
	c-1.9-2.9-3.8-5.8-5.7-8.7c-1.1-1.7-2-3.5-3.5-5c-0.5-0.5-1-1.1-2-0.3c0.9,1.5,1.8,2.9,2.7,4.4c1.9,3.1,3.6,6.4,5.6,9.4
	c2.8,4.3,5.8,8.5,8.7,12.7C91.6,82.8,92.1,82.9,92.6,83.2z"/>
<path class="st0" d="M273.1,135.8c-6.7-3.1-13.6-3.7-20.8-1.3c0.5-3.3,0.8-6.3-0.6-9.5c-1.3-3-3-5.5-5.5-7.8
	c1.9-1.3,3.7-2.5,5.5-3.8c5.9-4,12.1-7.6,18.4-10.9c5.3-2.8,10.8-5.4,16.1-8.4c3-1.7,6-3.2,9.1-4.6c1-0.4,1.8-1.1,2.7-1.7
	c4.1-2.4,8.3-4.8,12.7-6.6c0.3-0.1,0.6-0.2,0.9-0.3c0.5,0.4,1,0.8,1.7,1.3c-0.5,0.6-0.9,1.2-1.4,1.7c-3.6,4-7.3,7.9-10.8,12
	c-4,4.6-7.7,9.6-11.4,14.5c-3.7,5-7,10.3-10.3,15.6c-1.8,2.9-3.6,5.8-5.4,8.7C273.7,135,273.4,135.3,273.1,135.8z"/>
<path class="st0" d="M241.4,117.8c-1.5,1.3-3.1,2.6-4.6,3.8c-0.6,0.5-1.1,0.5-1.8,0.3c-1.6-0.3-3.2-0.6-4.8-0.7
	c-0.9-0.1-1.3,0.5-1.3,1.3c0,0.8,0.5,1.2,1.3,1.2c0.9,0,1.9,0,2.8,0c1.4,2,0.4,4.1,0.1,6.2c1.6-0.2,1.9-0.5,3.3-2.8
	c0.8,0.4,1.5,0.8,2.3,1.2c0.3,0.1,0.9,0.2,0.9,0.1c0.2-0.3,0.3-0.8,0.1-1.1c-0.5-1-1.1-2-1.7-3.1c1.6-1.6,3.3-3.1,5-4.7
	c1.1,0.6,2.2,1,3,1.7c3.3,3.2,5.7,8.5,3.7,13.7c-1.7,4.4-4.3,8-7.9,10.9c-0.4,0.3-0.8,0.6-1.2,0.8c-2.1,0.9-4.1,2-6.3,2.7
	c-3.2,1.1-6.4,0.6-9.4-0.8c-3.3-1.5-6.5-3.3-9.1-6c-0.8-0.9-1.9-1.5-2.7-2.4c-2.2-2.5-4.2-5.2-4.6-8.7c-0.2-1.9,0.1-3.8,0.8-5.6
	c1.2-3.2,2.7-6.2,5.7-8c1.7-1,3.4-1.9,5.2-2.7c1-0.5,2-0.7,3-1.1c0.2-0.1,0.5-0.3,0.7-0.2c1.1,0.7,2.2,0,3.3-0.2
	c2.1-0.3,4.2,0.1,6.2,0.6c2.6,0.7,5.1,1.2,7.3,2.9c0.2,0.2,0.4,0.3,0.5,0.5C241.4,117.4,241.4,117.6,241.4,117.8z"/>
<path class="st0" d="M264.9,147.8c1,1.7,1.4,3.3,0.4,5c1.1,0.9,1.7-0.1,2.1-0.6c0.6-0.5,0.9-1.4,1.3-2.1c0.6,0,1.2,1.1,2.2,0.1
	c-0.3-0.7-0.7-1.4-1-2.2c-0.2-0.4-0.3-1-0.1-1.3c1.3-2.4,2.7-4.8,4.2-7.4c1,1.1,1.7,1.9,2.5,2.7c1.7,1.8,3,3.9,3.9,6.2
	c0.8,2.2,1.9,4.3,1.9,6.7c0,0.7,0.1,1.4-0.1,2.1c-0.3,1.5-0.7,2.9-1.1,4.3c-0.4,1.2-1,2.2-2.3,2.5c-0.4,0.1-0.9,0.4-1.2,0.7
	c-1.1,1.5-2.7,2.1-4.3,2.7c-4.6,1.8-9.2,3.5-14.1,4.3c-0.8,0.1-1.7,0-2.4-0.2c-1.7-0.4-3.4-0.8-4.9-1.6c-1.4-0.6-2.7-1.5-3.9-2.6
	c-2.5-2.4-5-4.8-6.3-8.1c-1-2.6-1-5.1-0.4-7.8c0.2-0.9,0.3-1.8,0.5-2.8c2.4-1.5,4.2-3.8,6.2-5.9c0.6-0.7,1-1.6,1.6-2.4
	c0.6-0.9,0.8-2.2,2.3-2.1c0.1,0,0.1,0,0.2-0.1c2-2.3,4.9-2.2,7.6-2.5c3.7-0.3,7.2,0.5,10.7,1.7c0.2,0.1,0.4,0.2,0.6,0.3
	c0.2,0.1,0.4,0.2,0.8,0.5c-1.5,2.5-3,5.1-4.4,7.5c-2,0.2-3.9,0.3-5.8,0.4c-0.7,0.1-1.2,0.3-1.2,1.1c0,0.7,0.6,1.2,1.4,1.1
	c0.3,0,0.6-0.1,0.9-0.2C263.4,147.9,264.1,147.8,264.9,147.8z"/>
<path class="st0" d="M169.9,119c2.1,0.1,4.2,0.3,6.1,1.4c0.5,0.3,1.1,0.3,1.7,0.5c3,0.8,5.8,2,7.9,4.5c0.2,0.3,0.5,0.6,0.8,0.8
	c3.2,2.2,4.4,5.6,5.1,9.1c0.5,2.7-0.8,5.5-3.6,6.9c-5.5,2.7-11.4,3.5-17.3,2.8c-6.4-0.8-12.5-2.9-16.9-8.2c-1.3-1.5-2.5-3.1-2.8-5.1
	c-0.2-1.2-0.3-2.5,0-3.7c0.3-1.2,0.7-2.5,2.4-2.8c0.9-0.2,1.7-0.8,2.4-1.4c1.6-1.2,3.1-2.4,5.1-2.9c1.7-0.4,3.4-1,5.2-1.3
	C167.3,119.2,168.6,119.1,169.9,119z M160.6,129.7c0.9,0.2,1.8,0.5,2.8,0.7c1.9,0.4,3.8,0.8,5.7,1.2c0.2,0,0.7-0.2,0.8-0.5
	c0.1-0.3,0-0.7-0.2-1c-0.1-0.2-0.5-0.3-0.8-0.4c-2.3-1-4.7-1.2-7.1-1.5C161,128.2,160.7,128.7,160.6,129.7z M176.2,133.4
	c2.9,0,5.1,1.7,7.9,1.6c-0.1-0.6-0.3-1.1-0.7-1.3c-1.9-1-3.8-2.2-6.1-2.5C176.9,131.9,176.6,132.5,176.2,133.4z M175.1,121.8
	c-0.6,0.9-1.3,1.7-1.7,2.6c-0.4,0.9-0.7,1.9-0.8,2.9c-0.1,0.3,0.3,1,0.6,1.1c0.6,0.2,0.7-0.4,0.9-0.8c0.6-1.5,1.3-3,2-4.5
	c0-0.1,0-0.2,0.1-0.4C175.9,122.4,175.6,122.2,175.1,121.8z M170.7,134.5c-1.4,0.7-1.9,1.6-2.2,2.7c-0.2,0.7-0.4,1.5-0.6,2.2
	c-0.2,0.6-0.2,1.1,0.5,1.3c0.7,0.2,1.1-0.1,1.3-0.8c0.2-0.9,0.5-1.7,0.7-2.6C170.5,136.5,170.6,135.6,170.7,134.5z"/>
<path class="st0" d="M146.8,171c-3.2-0.9-6.1-1.8-9.1-2.6c0.7-4.3-1.8-6.6-4.8-8.8c1.5-1.9,1.8-4.1,1.5-6.4
	c-0.3-2.7-1.6-4.1-4.3-4.5c-0.9-0.1-1.7-0.2-2.6-0.5c2.7-1.7,5.4-3.3,8.6-3.5c2.4-0.1,4.7,1,6.7,2.3c1.7,1.1,3.2,2.5,4,4.5
	c0,0.1,0.1,0.3,0.2,0.3c1.4,0.4,1.6,1.9,2.5,2.8c1,1.1,2.2,1.6,3.8,1.7c-1,1.5-3.4,1.9-2.6,4.2c-0.8,0.3-1.3,0.1-1.4-0.6
	c-0.2-0.7-0.2-1.4-0.4-2.1c-0.2-0.6-0.4-1.1-0.7-1.6c-0.4-0.6-0.9-0.6-1.6-0.3c-0.1,0.1-0.5-0.2-0.8-0.4c-2.5-1.9-5.2-1.7-8-0.6
	c-2.7,1.2-3.6,4.9-0.6,7.1c2,1.5,4.2,2.3,6.7,2.4c1.9,0.1,3.6,1.9,3.4,3.8C147.2,169,146.9,169.9,146.8,171z"/>
<path class="st0" d="M238,175.8c-5.4,1.4-22.4,3.8-26.9,3.7c-1.3-1.4-2-3.4-4.2-4c0.5-1.1,0.9-2.1,1.4-3.1c0.1,0,0.3-0.1,0.4,0
	c2.9,2.1,5.6,0.8,8.2-0.4c1.4-0.6,2.6-1.7,3.9-2.5c0.5-0.3,0.9-0.9,1.5-0.2c0.1,0.1,0.4,0.1,0.5,0.1c1.5-1.1,2.4,0.1,3.1,1.1
	c0.9,1.2,1.5,2.5,2.3,3.8c0.3,0.6,0.7,1.1,1.1,1.7c0.7-0.3,1.3-0.5,2.1-0.9c-0.5-0.9-0.9-1.7-1.2-2.4c1-0.5,1.9-1,3-1.5
	C236.1,171.6,236.8,172.3,238,175.8z"/>
<path class="st0" d="M185.6,178.2c-6.3-0.9-12.3-1.8-18.3-2.6c-0.2,0-0.3-0.2-0.7-0.4c0.9-0.5,1.5-0.8,2-1.1c1.5-1,1.8-2.2,0.9-3.8
	c-0.4-0.7-0.9-1.4-1.4-2.1c0.9-0.8,1.8-1.5,2.7-2.3c2-0.1,3.5,0.6,4.7,2.2c1.4,2.1,4.3,2.1,6.1,1c0.6-0.3,1-0.8,1.5-1.3
	c1.5-1.6,3.1-1.4,4.4,0.6c-0.4,0.4-0.8,0.8-1.3,1.2c-1.1,1.1-1.1,2,0.1,3c0.6,0.5,1.2,1,1.8,1.4c0.7,0.6,1.3,1.2,1.4,2.4
	c-0.9,0.2-1.7,0.6-2.6,0.7C186.2,177.2,185.8,177.5,185.6,178.2z"/>
<path class="st0" d="M228,151.4c3.9,0.5,7.4,0,10.7-1.9c-0.2,2.1-0.5,3.9-0.4,5.7c0.1,1.8,0.6,3.6,0.9,5.5c-1,0-2,0-3.3,0
	c-2.5-2.8-5.8-3-9.4-2.1c0.6-1.3,1-2.4,1.6-3.5C228.8,153.9,229.2,152.8,228,151.4z"/>
<path class="st0" d="M199.1,164.8c-0.2,1.2-0.3,2.3-0.5,3.5c-0.3,1.7-1.2,2.3-2.9,2.4c-0.5,0-1.1,0-1.6,0c-2.1-0.1-3.6-1.8-3.2-3.8
	c0.4-2,1.3-3.9,2.9-5.2c1.6-1.3,2.2-1.3,3.8,0c0.4,0.3,1,0.6,1.2,1C199,163.3,199,164,199.1,164.8z M196.6,166.6
	c-0.5-0.7-0.9-1-1.6-0.8c-0.7,0.2-0.9,0.7-1,1.3c0,0.3,0.2,0.7,0.4,0.8c0.5,0.2,1.1,0.3,1.5-0.4
	C196.2,167.2,196.4,166.9,196.6,166.6z M197.1,163.8c-0.6-0.2-1.1-0.4-1.4,0.4c-0.1,0.2,0.3,0.7,0.5,0.7
	C196.9,165,197.2,164.6,197.1,163.8z"/>
<path class="st0" d="M245.9,169.1c-3.3-0.3-6.2-0.5-8.5,1.7c-1-0.5-1.9-0.9-2.8-1.3c-0.7-0.3-0.9-0.8-0.6-1.4
	c0.7-1.6,0.9-3.3,2.2-4.6c0.2-0.3,0.4-0.6,0.7-0.8c0.5-0.3,3.7,0.2,4.1,0.6C242.5,165.1,244.1,167,245.9,169.1z"/>
<path class="st0" d="M232.3,168.6c-1.5,0.1-2.8,0.3-4.3,0.4c-0.5-0.4-1.2-1-1.8-1.6c-1.8-2-1.4-6.2,2-7c1.6-0.4,3.2-0.3,4.7,0.5
	c1.3,0.7,1.7,1.3,1.3,2.8C233.6,165.3,232.9,166.9,232.3,168.6z M227.6,165.3c0.6,0,0.9-0.4,0.9-1.1c0-0.7-0.6-1.2-1.3-1.2
	c-0.6,0.1-1,0.4-1,1C226.3,164.8,226.8,165.3,227.6,165.3z M231.2,163.3c-0.1-0.1-0.4-0.6-0.7-0.6c-0.6,0-1,0.4-1,1
	c0,0.5,0,1,0.7,1.1C230.7,164.8,231.1,164.4,231.2,163.3z"/>
<path class="st0" d="M168,158.5c-0.7,0-1.3,0.1-2,0c-0.4,0-0.9-0.2-1.1-0.4c-1.4-1.8-3.4-2.4-5.6-2.7c1.3-2.2,1.4-4.6,0.5-7.1
	c1.2,0.2,2.3-0.1,2.7,1.4c0.1,0.2,0.5,0.4,0.9,0.5c2.4,0.6,3.7,2.3,4.5,4.5c0.2,0.6,0.2,1.3,0.2,1.9
	C168.2,157,168.1,157.6,168,158.5z"/>
<path class="st0" d="M189,170.1c0.9,0.8,1.8,1.6,2.7,2.3c0.4,0.3,0.9,0.3,1.4,0.4c0.2,0,0.3-0.1,0.5-0.1c3-0.3,5.2,1.4,5.6,4.4
	c0.1,0.7,0,1.5,0,2.4c-3.2,0.2-6.2-0.1-9.6-0.6c0.7-0.4,0.9-0.6,1.2-0.8c1.4-0.9,1.7-1.8,0.8-3.2c-0.8-1.1-1.8-2-2.8-3
	C188.3,171.1,188.2,171.2,189,170.1z"/>
<path class="st0" d="M220.1,167.1c-1.8-4.1-3.2-4.9-7.4-4.7c-0.6-1.4-1.2-2.7-1.8-4.1c2.6-1.8,5.1-1,7.4,0.5
	c2.3,1.4,3.5,3.5,3.5,6.3C221.7,166.3,221.5,166.4,220.1,167.1z"/>
<path class="st0" d="M201.5,128.2c-0.4,0.4-0.7,0.7-0.9,1.1c-0.3,0.6-0.6,1.2-0.8,1.8c-0.2,0.7-0.1,1.4,0.7,1.6
	c0.8,0.1,0.9-0.5,1-1.2c0.1-1,0.6-1.9,2-2.3c0.2,0.5,0.5,1.1,0.6,1.6c0.1,2.4-0.6,4.5-2.3,6.2c-0.7,0.6-1.7,1-2.7,1.2
	c-1.1,0.2-2.1-0.6-2.5-1.6C195.1,133.4,197.9,128.7,201.5,128.2z"/>
<path class="st0" d="M124.1,163.5c0-0.2,0.1-0.4,0.1-0.5c0.6-2.5,1.6-3.1,4.1-2.7c2.8,0.5,5,2,6.6,4.3c0.5,0.8,0.6,1.9,0.9,3
	C131.7,166.5,127.8,165.4,124.1,163.5z"/>
<path class="st0" d="M290.9,148.6c-2.4-3.6-4.7-4.2-8.5-2.2c-0.4-0.8-0.8-1.5-1.4-2.6c7.9,1,14.9,3.3,21.9,6.9
	c-1.5,1.4-2.8,2.5-4.2,3.8c-0.7-2-0.8-3.9-2.6-4.9C294.5,148.6,292.8,148.2,290.9,148.6z"/>
<path class="st0" d="M143.9,134.1c-4,0.8-4.3,0.9-4.2,2.7c0.8-0.3,1.5-0.5,2.1-0.9c0.9-0.5,1.8-0.3,2.5,0.3c0.9,0.8,1.4,1.8,1.1,3
	c-0.2,1-1,1.3-1.9,1.4c-1.9,0.3-3.7,0.2-5.5-0.5c-1.8-0.7-2.1-2-1.3-3.6c0.8-1.6,4.2-3.3,6-3C143.2,133.7,143.5,133.9,143.9,134.1z"
	/>
<path class="st0" d="M154.7,167.8c-2.3,2.4-2.3,2.4-1.4,5.2c-1.6-0.5-3-0.9-4.6-1.4c0.1-0.9,0.2-1.6,0.4-2.3
	c0.6-2.2,0.3-4.2-2.1-5.3c1.1-1.3,2.5-1.4,3.8-0.8C152.8,164,154.6,165.2,154.7,167.8z"/>
<path class="st0" d="M154.3,173.1c0.2-0.6,0.6-1.1,0.6-1.5c-0.1-1.1,0.6-1.6,1.5-2c1.4-0.7,2.9-0.6,4.4-0.4c0.5,0.1,1.1,0.5,1.5,1
	c1.1,1.4,2.2,2.9,2.2,4.8C162.9,175.1,155.9,173.8,154.3,173.1z"/>
<path class="st0" d="M219.2,155.5c-0.9-0.5-1.5-1.4-1.8-2.3c-0.3-0.9-0.1-1.5,0.8-1.9c2-0.9,4.1-0.8,6.1,0.3c-0.4,0.4-0.9,0.6-1.1,1
	c-0.2,0.4,0,1,0,1.5c1.4,0.1,2.1-0.4,2.4-1.6c1,0.3,1.2,0.9,1,1.7c-0.5,1.4-1.1,2.7-2.2,3.7c-0.6,0.5-1.3,0.9-2,0.4
	c-1.1-0.7-2.4-1.3-3.1-2.7c0.5-0.1,1.1-0.1,1.5-0.4c0.3-0.2,0.6-0.9,0.4-1.2c-0.2-0.4-0.8-0.7-1.2-0.8
	C219,153.2,218.7,154.1,219.2,155.5z"/>
<path class="st0" d="M124.6,150c0.4,0.6,0.6,1,0.8,1.4c0.3-0.1,0.5-0.1,0.7-0.3c1.6-1.5,3.2-0.8,4.8,0c0.4,0.2,0.7,0.7,0.9,1.1
	c0.3,0.8,0.4,1.6,0.5,2.4c0.1,3.5-1.6,3.8-4.6,2.8c-2-0.7-3.7-3.9-3.5-6C124.2,151,124.4,150.7,124.6,150z M129.1,153.6
	c0.5-1.3,0.4-1.6-0.4-1.8c-0.8-0.2-1,0-1.6,1.5C127.7,153.9,128.4,153.9,129.1,153.6c0,0.2-0.2,0.5-0.2,0.8
	c-0.2,0.7,0.2,1.1,0.8,1.4c0.7,0.3,1.1,0,1.5-0.5c0.2-0.3,0.3-0.7,0.6-1.2C130.7,153.8,129.9,153.7,129.1,153.6z"/>
<path class="st0" d="M154.8,154.9c-0.9-0.2-1.7-0.3-2.5-0.5c-1.8-0.5-2.4-2.3-1-3.6c1.7-1.5,3.7-2.3,6.1-1.9
	c0.3,0.1,0.7,0.3,0.9,0.5c1,1.1,0.3,4.4-1.1,4.9C156.4,154.6,155.5,154.7,154.8,154.9z"/>
<path class="st0" d="M207.4,167.4c1.8-0.6,3.1-1.4,4-2.9c0.1-0.2,0.4-0.4,0.6-0.4c1.6,0.2,3.3-0.1,4.6,1c1,0.9,1.1,1.8,0.3,2.9
	c-0.2,0.2-0.5,0.5-0.4,0.7c0.3,1.2-0.5,1.5-1.3,1.8c-0.8,0.3-1.7,0.7-2.5,1c-1,0.4-3.1-0.5-3.8-1.5
	C208.4,169.3,208,168.4,207.4,167.4z M210.6,167.4c-0.9,0.6-1.5,1.3-1,2.3c0.3,0.6,0.9,0.9,1.7,0.7c0.7-0.2,1.3-1,1.3-1.7
	C212.4,167.6,211.4,167.7,210.6,167.4z M216.1,168.5c0-0.9-0.6-1.7-1.3-1.6c-0.6,0-1.3,1-1.4,1.7c0,0.8,0.5,1.3,1.4,1.3
	C215.6,169.8,216.1,169.3,216.1,168.5z"/>
<path class="st0" d="M290.9,159.5c-2.3,1.4-4.6,2-7.3,2.4c0.3-1.3,0.6-2.5,0.9-3.6c0.2-1.1,0.5-2.2,0.7-3.5c0.8-0.8,1.9-0.7,3-0.1
	C290,155.7,290.8,157.3,290.9,159.5z"/>
<path class="st0" d="M184.2,146.5c-0.6,0.2-1.1,0.5-1.7,0.7c-3,0.8-6.2,0.9-9.3,0.7c-2.6-0.2-5.3-0.2-7.9-0.7c-5-1-9.6-2.9-13.4-6.5
	c-0.6-0.6-1.1-1.4-1.5-2.2c-0.2-0.3,0-0.8,0-1.6c1.2,1.3,2.1,2.3,3.1,3.3c2.2,2.4,5.1,3.8,8.1,4.8c2.4,0.8,4.8,1.6,7.3,1.9
	c2.3,0.4,4.8,0.4,7.2,0.2c2.7-0.2,5.3-0.7,7.9-1C184.1,146.2,184.1,146.3,184.2,146.5z"/>
<path class="st0" d="M144.6,162.3c-2.2-0.2-3.9-0.7-5.4-1.7c-0.8-0.5-1.4-1.2-1.3-2.2c0.1-1,0.9-1.6,1.7-1.9
	c1.9-0.7,3.6-0.5,5.2,0.8c0.6,0.5,0.9,1.1,1.7,1.5c0.9,0.3,0.7,2.2-0.1,2.8C145.7,162,145,162.2,144.6,162.3z M139.7,159.8
	c0.9,1.2,1.5,1.6,2,1c0.5-0.6,1-1,1.8-1.2c0.3,0,0.6-0.6,0.6-0.9c0-0.4-0.3-0.9-0.7-1.2c-0.2-0.2-0.8,0-1.1,0.2
	c-0.6,0.3-1.2,0.7-1.7,1.1C140.3,159.1,140,159.4,139.7,159.8z"/>
<path class="st0" d="M240.3,175.7c-0.4-0.8-0.7-1.4-0.9-2.1c-0.4-1.1-0.1-1.8,1-2.3c2.2-0.8,4.3-0.7,6.4,0.3c0.7,0.3,1.1,0.8,1,1.5
	c-0.1,0.7-0.5,1.2-1.3,1.3C244.5,174.9,242.5,175.3,240.3,175.7z"/>
<path class="st0" d="M142.4,144.3c1.7-1.1,3.4-1.3,5.1-1.3c1.2,0,3.1,2.1,3.2,3.5c0.1,1.4,0.1,2.9-1.6,3.8
	C147.2,148,145.5,145.4,142.4,144.3z"/>
<path class="st0" d="M200.9,143.5c1,0.1,1.9,0.3,2.5,1.3c0.2,0.3,0.5,0.6,0.9,0.9c0.9,0.7,0.9,1.1,0.2,1.8c-0.1,0.1-0.3,0.2-0.4,0.3
	c-0.8,0.5-1.4,1.7-2.5,1.5c-1.5-0.3-3-1-4-2.2c-1.2-1.4-0.7-2.7,1.1-3.1C199.4,143.7,200.2,143.7,200.9,143.5z M198.6,147.2
	c0.7-0.7,1.3-1.3,1.9-1.9c-0.9-0.8-1.7-1-2.4-0.3C197.5,145.5,197.7,146.1,198.6,147.2z M201.8,147.1c0.4-0.2,0.7-0.4,1-0.6
	c0,0-0.1-0.4-0.2-0.4C202,145.9,201.8,146.2,201.8,147.1z"/>
<path class="st0" d="M288.5,152.4c-1.3,0.1-2.5,0.2-3.8,0.3c-0.5-1.4-1-2.8-1.5-4.3c2.4-1.4,3.4-1.5,4.8-0.2
	C289,149,289.2,150.7,288.5,152.4z"/>
<path class="st0" d="M163.1,158.8c-0.8,0.4-1.3,0.8-1.8,1c-1.3,0.5-2.5,1-3.9,0.4c-1.2-0.5-2.7-0.4-4.2-0.6c1.2-1.5,2.8-1.7,4.2-2
	C159.4,157.2,161.3,157.3,163.1,158.8z"/>
<path class="st0" d="M208,179.9c-2.2-0.4-4.2-0.1-6.5-0.3C204.2,176.8,207.2,177,208,179.9z"/>
<path class="st0" d="M123.1,159.8c-0.1-2-2.1-2.6-2.9-4.3c0.8-0.4,1.5-0.7,2-0.9c1,1.3,1.9,2.6,2.8,3.8
	C124.5,158.8,123.9,159.2,123.1,159.8z"/>
<path class="st0" d="M166.8,174c-0.7-1.9-1.3-3.6-2-5.4c0.8,0,1.5,0.1,1.9,1.1c0.5,1.1,1.8,1.8,1.7,3.4
	C168,173.3,167.4,173.6,166.8,174z"/>
<path class="st0" d="M153.5,161.7c1.1,1.1,2.4,0.4,3.8,0.6c-0.8,1.7-0.2,3.1,1.1,4.5c-0.6,0.1-0.9,0.1-1.5,0.2
	C157.2,164.3,154.5,163.7,153.5,161.7z"/>
<path class="st0" d="M156.4,146.9c-0.6,0.1-1.2,0.2-1.7,0.3c-0.5,0.1-1,0.2-1.7,0.4c-0.1-0.9-0.3-1.9-0.5-3c1.5,0.7,2.7,1.3,4,1.9
	C156.5,146.6,156.4,146.7,156.4,146.9z"/>
<path d="M219.2,155.5c-0.5-1.4-0.3-2.3,0.8-2.2c0.4,0,1,0.4,1.2,0.8c0.1,0.3-0.1,1-0.4,1.2c-0.4,0.3-1,0.3-1.5,0.4
	C219.4,155.6,219.3,155.5,219.2,155.5z"/>
<path class="st0" d="M252.3,173.3c-0.8,0.2-1.7,0.3-2.6,0.5c-0.1-0.7-0.1-1.2-0.2-2c1,0.4,1.9,0.7,2.8,1
	C252.3,173,252.3,173.2,252.3,173.3z"/>
<path class="st0" d="M117.5,148.7c0.3-0.4,0.6-0.7,0.8-1.1c0.8,0.5,1.5,0.9,2.3,1.4c0,0.1,0,0.1-0.1,0.2
	C119.6,149,118.7,148.8,117.5,148.7z"/>
<path class="st0" d="M147.6,138.9c0.4,0.9,0.7,1.4,1,2c-0.7,0.1-1.2,0.2-2.1,0.3C146.9,140.3,147.1,139.8,147.6,138.9z"/>
<path class="st0" d="M223.3,162.5c-0.4-0.8-0.6-1.3-0.9-1.9c0.6-0.1,1.2-0.2,2-0.4C224,160.9,223.7,161.6,223.3,162.5z"/>
<path class="st0" d="M40.2,183.1c-1.2,0.2-2.1,0.4-3,0.3c-0.7,0-1.5-0.1-2.1-0.4c-1.4-0.8-1.7-2.1-0.7-3.3c1.6-2.1,4.3-4.1,7.5-2.6
	c2.7,1.2,6.3-0.7,6.8-3.6c0.1-0.6,0.4-1.2,0.7-1.8c0.5-1.2,1.1-1.5,2.3-1.4c1.3,0.1,2.4,0.8,2.7,1.8c0.1,0.3,0,0.6-0.1,0.9
	c-0.2,0.5-0.4,1-0.6,1.5c-0.8,1.8-0.6,2.9,0.8,4.2c0.6,0.6,1.3,0.8,2.1,0.7c1.1-0.2,2-0.7,2.8-1.5c1.2-1.2,2.7-1.7,4.4-1.7
	c1.5,0,2.5,0.7,3.1,2.1c0.3,0.7,0.1,1.2-0.6,1.4c-0.8,0.3-1.7,0.6-2.6,0.6c-1.4,0-2.6,0.6-3.6,1.4c-1.2,0.9-1.3,1.7-0.3,2.8
	c0.7,0.9,1.5,1.7,2.3,2.5c0.8,0.9,1,2.1,0.4,2.8c-0.6,0.8-1.8,1.1-2.9,0.7c-0.4-0.2-0.9-0.4-1.2-0.7c-0.8-0.9-1.6-1.7-2.3-2.7
	c-1.3-2-1.9-2.3-4.3-2c-2,0.3-3.2,1.8-2.9,3.8c0.2,1.1,0.3,2.1,0.4,3.2c0.1,0.6-0.2,1-0.8,1.2c-1.6,0.6-4.6-0.2-5.5-1.7
	c-0.8-1.4-0.3-2.8,0.2-4.1c0.6-1.8,0.1-3-1.6-3.8C41.2,183.3,40.6,183.2,40.2,183.1z"/>
<path class="st0" d="M26.7,173.7c-1.1-0.2-2.8-0.5-4.1-1.8c-1.7-1.5-1.6-3.8,0.2-4.9c1.9-1.2,3.9-2.1,6.1-2.5c0.5-0.1,1.1-0.1,1.6,0
	c2.6,0.5,3.5,1.9,3,4.5C32.8,172.1,30.1,173.9,26.7,173.7z M25.8,171.3c1,0,1.5-0.4,1.4-1.2c0-0.8-0.5-1-1.2-1
	c-0.9,0-1.7,0.6-1.7,1.2C24.3,170.9,24.9,171.3,25.8,171.3z M28.9,168.2c0,0.2,0.1,0.3,0.1,0.5c0.6,0.1,1.1,0.3,1.7,0.3
	c0.3,0,0.8-0.4,0.9-0.7c0.1-0.3-0.1-0.9-0.3-1.1c-0.3-0.2-0.8-0.3-1.1-0.1C29.7,167.3,29.3,167.8,28.9,168.2z"/>
<path d="M200.6,263.5c2.3,0.1,4.7,0.2,7,0.3c0.5,0,1,0,1.4,0c4.3-0.3,8.6-0.3,12.9-0.9c5.3-0.7,10.6-1.7,15.9-2.7
	c0.6-0.1,1.2-0.1,1.6,0.5c0.5,0.6,0.2,1.4-0.6,1.5c-4.6,0.8-9.1,1.6-13.7,2.5c-1.1,0.2-2.1,0.4-3.2,0.6c-2,0.3-4,0.5-6,0.7
	c-1.9,0.2-3.8,0.3-5.7,0.4c-0.8,0-1.6,0.1-2.3,0c-3.2-0.4-6.3-0.2-9.5-0.1c-1.5,0.1-3,0-4.5-0.2c-1-0.1-1.2-0.7-0.5-1.5
	c0.5-0.6,1.1-1,2-1C197.1,263.6,198.8,263.5,200.6,263.5C200.6,263.5,200.6,263.5,200.6,263.5z"/>
<path d="M184.6,271c-4.4-0.2-8.4-0.3-12.4-0.4c-1.3-0.1-2.5-0.3-3.7-0.4c-3.2-0.3-6.4-0.5-9.6-1.1c-3.1-0.5-6.1-1.4-9-2.2
	c-0.5-0.1-1-0.8-1.3-1.3c-0.2-0.4,0-1.1,0.3-1.4c0.2-0.2,0.9-0.2,1.3,0c4.6,2,9.4,2.7,14.3,3.3c1.8,0.2,3.7,0.6,5.5,0.8
	c4.6,0.6,9.1,1.2,13.8,0.8c0.4,0,0.9,0.1,1.1,0.4c0.3,0.3,0.4,0.9,0.3,1.3C185.2,270.9,184.7,271,184.6,271z"/>
<path d="M92.6,83.2c-0.5-0.3-1-0.4-1.2-0.8c-2.9-4.2-5.9-8.4-8.7-12.7c-2-3.1-3.7-6.3-5.6-9.4c-0.9-1.5-1.8-2.9-2.7-4.4
	c1-0.8,1.4-0.2,2,0.3c1.5,1.5,2.4,3.3,3.5,5c1.9,2.9,3.8,5.8,5.7,8.7c1.5,2.4,3,4.7,4.5,7.1c0.8,1.2,1.6,2.4,2.4,3.6
	C93,81.6,93,81.6,92.6,83.2z"/>
<path d="M160.6,129.7c0-1,0.3-1.5,1.2-1.4c2.4,0.3,4.9,0.5,7.1,1.5c0.3,0.1,0.6,0.2,0.8,0.4c0.2,0.3,0.3,0.7,0.2,1
	c-0.1,0.2-0.6,0.5-0.8,0.5c-1.9-0.3-3.8-0.7-5.7-1.2C162.5,130.2,161.5,129.9,160.6,129.7z"/>
<path d="M176.2,133.4c0.5-1,0.8-1.5,1.1-2.2c2.3,0.3,4.2,1.4,6.1,2.5c0.4,0.2,0.6,0.8,0.7,1.3C181.3,135.1,179.1,133.5,176.2,133.4z
	"/>
<path d="M175.1,121.8c0.5,0.3,0.8,0.5,1,0.7c0,0.2,0,0.3-0.1,0.4c-0.7,1.5-1.3,3-2,4.5c-0.2,0.5-0.3,1-0.9,0.8
	c-0.3-0.1-0.7-0.7-0.6-1.1c0.2-1,0.4-2,0.8-2.9C173.9,123.6,174.5,122.8,175.1,121.8z"/>
<path d="M170.7,134.5c-0.1,1.1-0.1,2-0.3,2.8c-0.2,0.9-0.5,1.7-0.7,2.6c-0.2,0.7-0.6,1-1.3,0.8c-0.7-0.2-0.7-0.7-0.5-1.3
	c0.2-0.7,0.4-1.5,0.6-2.2C168.8,136.1,169.2,135.2,170.7,134.5z"/>
<path d="M196.6,166.6c-0.2,0.3-0.5,0.6-0.6,0.9c-0.4,0.7-1,0.6-1.5,0.4c-0.2-0.1-0.5-0.6-0.4-0.8c0.1-0.6,0.3-1.1,1-1.3
	C195.7,165.6,196.2,165.8,196.6,166.6z"/>
<path d="M197.1,163.8c0.1,0.8-0.2,1.2-0.9,1.1c-0.2,0-0.5-0.6-0.5-0.7C196,163.4,196.5,163.6,197.1,163.8z"/>
<path d="M227.6,165.3c-0.8,0-1.4-0.5-1.3-1.2c0-0.6,0.4-1,1-1c0.7-0.1,1.3,0.5,1.3,1.2C228.6,164.9,228.3,165.3,227.6,165.3z"/>
<path d="M231.2,163.3c-0.1,1.1-0.5,1.6-1.1,1.5c-0.6-0.1-0.7-0.6-0.7-1.1c0-0.6,0.4-1.1,1-1C230.7,162.6,231,163.1,231.2,163.3z"/>
<path d="M129.1,153.6c0.8,0.1,1.6,0.3,2.6,0.4c-0.2,0.6-0.4,0.9-0.6,1.2c-0.3,0.5-0.8,0.8-1.5,0.5c-0.6-0.3-0.9-0.7-0.8-1.4
	C129,154.1,129.1,153.8,129.1,153.6L129.1,153.6z"/>
<path d="M129.2,153.5c-0.8,0.4-1.5,0.4-2-0.3c0.5-1.5,0.8-1.7,1.6-1.5C129.5,152,129.6,152.3,129.2,153.5
	C129.1,153.6,129.2,153.5,129.2,153.5z"/>
<path d="M210.6,167.4c0.8,0.3,1.8,0.2,1.9,1.3c0.1,0.7-0.6,1.5-1.3,1.7c-0.7,0.2-1.4-0.1-1.7-0.7C209.1,168.7,209.7,168,210.6,167.4
	z"/>
<path d="M216.1,168.5c0,0.8-0.5,1.3-1.3,1.3c-0.8,0-1.4-0.5-1.4-1.3c0-0.7,0.8-1.6,1.4-1.7C215.4,166.8,216,167.6,216.1,168.5z"/>
<path d="M139.7,159.8c0.3-0.4,0.6-0.7,0.9-1c0.5-0.4,1.1-0.8,1.7-1.1c0.3-0.2,0.9-0.3,1.1-0.2c0.3,0.2,0.6,0.7,0.7,1.2
	c0,0.3-0.3,0.9-0.6,0.9c-0.8,0.2-1.3,0.5-1.8,1.2C141.2,161.4,140.6,161.1,139.7,159.8z"/>
<path d="M198.6,147.2c-1-1.1-1.1-1.7-0.5-2.2c0.8-0.7,1.5-0.4,2.4,0.3C199.9,145.9,199.3,146.5,198.6,147.2z"/>
<path d="M201.8,147.1c0-0.9,0.3-1.2,0.9-1c0.1,0,0.2,0.4,0.2,0.4C202.5,146.8,202.1,146.9,201.8,147.1z"/>
<path d="M25.8,171.3c-0.9,0-1.4-0.4-1.5-1c0-0.7,0.8-1.3,1.7-1.2c0.7,0,1.2,0.3,1.2,1C27.3,170.8,26.7,171.3,25.8,171.3z"/>
<path d="M28.9,168.2c0.4-0.4,0.8-0.9,1.3-1.1c0.3-0.2,0.9-0.1,1.1,0.1c0.3,0.2,0.4,0.8,0.3,1.1c-0.1,0.3-0.6,0.7-0.9,0.7
	c-0.6,0-1.1-0.2-1.7-0.3C29,168.5,29,168.3,28.9,168.2z"/>
</svg>
