<?xml version="1.0" encoding="utf-8"?>
<!-- Generator: Adobe Illustrator 22.0.1, SVG Export Plug-In . SVG Version: 6.00 Build 0)  -->
<svg version="1.1" id="Ebene_1" xmlns="http://www.w3.org/2000/svg" xmlns:xlink="http://www.w3.org/1999/xlink" x="0px" y="0px"
	 viewBox="0 0 1920 1280" style="enable-background:new 0 0 1920 1280;" xml:space="preserve">
<style type="text/css">
	.st0{fill:#3B3C3C;}
	.st1{fill:#FFFFFF;stroke:#3B3C3C;stroke-miterlimit:10;}
</style>
<g>
	<path class="st0" d="M565,523.1c11.5-3,21.8-4.5,30.7-4.5c11.5,0,21,2.7,28.5,8c7.5,5.3,11.2,13.8,11.2,25.3v105l25.3,8v14.4H573
		v-14.4l19.2-8v-94.1c0-5.3-0.6-9.3-1.9-11.8s-3.4-4.3-6.4-5.1c-3-0.9-7.6-1.3-13.8-1.3c-11.3,0-21.5,1.3-30.7,3.8v108.5l19.2,8
		v14.4h-87.4v-14.4l25-8V549.7l-25-3.2v-16l54.1-11.8h14.1v12.8C544.9,528.9,553.4,526.1,565,523.1z"/>
	<path class="st0" d="M669.6,601.2c0-29.4,6.8-50.6,20.5-63.4c13.6-12.8,31.4-19.2,53.1-19.2c22.4,0,38.7,5,49,14.9
		c10.2,9.9,15.4,25.4,15.4,46.6c0,9.2-0.4,16.2-1.3,21.1H716v7.7c0,18.8,3.5,31.7,10.6,38.9c7,7.1,17.9,10.7,32.6,10.7
		c11.1,0,25.8-2.6,44.2-7.7l2.6,14.1c-15.6,11.7-35.4,17.6-59.5,17.6C695.2,682.5,669.6,655.4,669.6,601.2z M764,580.4v-6.7
		c0-10.7-1.3-18.8-3.8-24.5c-2.6-5.6-7.7-8.5-15.4-8.5c-10.7,0-17.9,3.5-21.8,10.4c-3.8,6.9-6,17.9-6.4,32.8L764,580.4z"/>
	<path class="st0" d="M1036.3,543.9l-42.6,137l-30.4,3.2l-27.5-83.8l-25.6,80.6l-30.1,3.2l-49-140.8l-16.3-4.8v-16.6H893v17.6
		l-16.6,3.8l25.3,88.3l28.2-94.1l26.9-4.5l28.2,98.9l22.7-88l-20.5-4.5v-17.6h69.4v16.6L1036.3,543.9z"/>
	<path class="st0" d="M1137.8,521.2c6.2-1.7,12.3-2.6,18.2-2.6c22,0,39,6.7,51,20c12,13.3,18.1,33.6,18.1,60.6
		c0,23.9-6.1,43.7-18.2,59.5c-12.2,15.8-33.3,23.7-63.4,23.7c-9.2,0-20.1-0.9-32.8-2.6c-12.7-1.7-23.1-3.7-31.2-6.1V476.7l-25-3.5
		v-15.4l54.1-12.5h14.1v81.9C1126.6,524.9,1131.6,522.9,1137.8,521.2z M1144.8,660.7c12.8,0,21.7-4.9,26.6-14.7
		c4.9-9.8,7.4-25.2,7.4-46.1c0-20.7-2.3-35.8-7-45.4c-4.7-9.6-13.5-14.4-26.6-14.4c-8.1,0-15.6,2.1-22.4,6.4v110.1
		C1126.8,659.3,1134.1,660.7,1144.8,660.7z"/>
	<path class="st0" d="M1244.3,679.3v-16l25-6.4V550l-25-3.5v-15.4l54.1-12.5h14.1v138.2l25,6.4v16H1244.3z M1271.5,490.7
		c-5.5-5-8.3-11-8.3-18.1c0-7.2,2.8-13.5,8.3-18.9c5.5-5.3,11.9-8,19.2-8c7.2,0,13.4,2.7,18.6,8c5.1,5.3,7.7,11.6,7.7,18.9
		c0,7.3-2.6,13.3-7.7,18.2c-5.1,4.9-11.3,7.4-18.6,7.4C1283.5,498.2,1277.1,495.7,1271.5,490.7z"/>
	<path class="st0" d="M1352.8,601.2c0-29.4,6.8-50.6,20.5-63.4c13.6-12.8,31.4-19.2,53.1-19.2c22.4,0,38.7,5,49,14.9
		c10.2,9.9,15.4,25.4,15.4,46.6c0,9.2-0.4,16.2-1.3,21.1h-90.2v7.7c0,18.8,3.5,31.7,10.6,38.9c7,7.1,17.9,10.7,32.6,10.7
		c11.1,0,25.8-2.6,44.2-7.7l2.6,14.1c-15.6,11.7-35.4,17.6-59.5,17.6C1378.4,682.5,1352.8,655.4,1352.8,601.2z M1447.2,580.4v-6.7
		c0-10.7-1.3-18.8-3.8-24.5c-2.6-5.6-7.7-8.5-15.4-8.5c-10.7,0-17.9,3.5-21.8,10.4c-3.8,6.9-6,17.9-6.4,32.8L1447.2,580.4z"/>
</g>
<g>
	<path class="st1" d="M448.9,617.7c-0.5,0-0.9,0.4-0.9,0.9s0.4,0.9,0.9,0.9h3.9v-1.9H448.9z"/>
	
		<rect x="454.6" y="609.9" transform="matrix(0.7071 0.7071 -0.7071 0.7071 568.8881 -142.7553)" class="st1" width="4.4" height="10.9"/>
	<path class="st1" d="M448.5,620.5c-0.9,0.9-0.9,2.3,0,3.1s2.3,0.9,3.1,0l2.9-2.9l-3.1-3.1L448.5,620.5z"/>
	<g>
		<path class="st1" d="M480.6,607.9c0.2-0.5,0.7-0.7,1.2-0.5c0.5,0.2,0.7,0.7,0.5,1.2l-1.4,3.6l-1.7-0.7L480.6,607.9z"/>
		
			<rect x="473.3" y="609" transform="matrix(0.4124 0.911 -0.911 0.4124 839.1752 -72.1916)" class="st1" width="4.4" height="10.9"/>
		<path class="st1" d="M483.3,608.5c1.1-0.5,2.4,0,2.9,1.1c0.5,1.1,0,2.4-1.1,2.9l-3.8,1.7l-1.8-4L483.3,608.5z"/>
	</g>
	<rect x="458.4" y="622.5" class="st1" width="4.4" height="7"/>
	<path class="st1" d="M456.4,627.5c-3.2,0-5.7,2.6-5.7,5.7h13.6v-5.7H456.4z"/>
	<g>
		
			<rect x="468.9" y="622.5" transform="matrix(-1 -4.491841e-11 4.491841e-11 -1 942.2357 1252.0457)" class="st1" width="4.4" height="7"/>
		<path class="st1" d="M475.3,627.5c3.2,0,5.7,2.6,5.7,5.7h-13.6v-5.7H475.3z"/>
	</g>
	<path class="st1" d="M476.1,617.3c0-5.6-4.6-10.2-10.2-10.2c-5.6,0-10.2,4.6-10.2,10.2v7.3h20.3V617.3z"/>
	<g>
		
			<rect x="455.8" y="578.9" transform="matrix(0.8884 -0.459 0.459 0.8884 -217.4393 275.1843)" class="st1" width="3.2" height="12"/>
	</g>
	<circle class="st1" cx="453.9" cy="578.1" r="4.5"/>
	<g>
		
			<rect x="468.7" y="583.3" transform="matrix(0.459 -0.8884 0.8884 0.459 -262.8352 738.103)" class="st1" width="12" height="3.2"/>
	</g>
	<circle class="st1" cx="478.1" cy="578.1" r="4.5"/>
	<circle class="st1" cx="465.9" cy="598.3" r="14.9"/>
	<circle class="st1" cx="466.2" cy="594.6" r="6.5"/>
	<circle class="st0" cx="465.9" cy="592.9" r="2.6"/>
	<path class="st1" d="M466.3,609.7c5.3,0,5-6.6,5-6.6s-2,1.8-5.1,1.8h-0.3c-3.1,0-5.1-1.8-5.1-1.8s-0.4,6.6,5,6.6H466.3z"/>
</g>
</svg>
