<?xml version="1.0" encoding="utf-8"?>
<!-- Generator: Adobe Illustrator 22.0.1, SVG Export Plug-In . SVG Version: 6.00 Build 0)  -->
<svg version="1.1" id="Ebene_1" xmlns="http://www.w3.org/2000/svg" xmlns:xlink="http://www.w3.org/1999/xlink" x="0px" y="0px"
	 viewBox="0 0 241.1 263.4" style="enable-background:new 0 0 241.1 263.4;" xml:space="preserve">
<style type="text/css">
	.st0{fill:none;stroke:#000000;stroke-width:2;stroke-linecap:round;stroke-linejoin:round;stroke-miterlimit:10;}
</style>
<path class="st0" d="M110.4,97.5c-0.1-1.4-1.1-2.2-2.9-2.3c-1.7-0.1-3.3,0.4-4.5,1.3c-2.2,1.5-4.5,3-5.8,5.5
	c-2.1,3.9-3.1,8-1.7,12.4c0.4,1.2,1.3,1.9,2,2.9c1.5,2,3.4,3.6,5.5,4.8c1.1,0.6,2.4,0.9,3.6,1.4c1.3,0.6,1.4,1.1,0.5,2.3
	c-0.5,0.6-1.2,1.1-1.8,1.6c-3.3,2.6-4.7,6-4.3,10.2c0.1,1,0.1,2.1,0.2,3.1c0.7,4.3,3.5,6.9,7,8.9c0.6,0.3,1.1,0.8,1.5,1.2"/>
<path class="st0" d="M122.4,206.2c-0.2,1-0.9,1.8-1.4,2.6c-1.7,2.6-1.4,5.4-0.1,8c0.6,1.3,1.5,2.3,2.5,3.4c2.2,2.6,6.6,2.9,9.4,1.2
	c2.1-1.3,3.9-2.9,5.2-5.1c0.6-1.1,0.4-2.5-0.5-3.4c-2.4-2.3-4.4-4.8-5.3-8c-0.2-0.7-0.4-1.4-1-1.9"/>
<path class="st0" d="M201.6,76.1c-0.9-2.7-3.1-3.6-5.6-3.9c-1.7-0.2-1.7-0.1-2-1.7c-0.1-0.3-0.2-0.5-0.3-0.7
	c-2.1-3.2-4.3-6.2-7.9-7.8c-0.7-0.3-1.4-0.6-2.3-0.6c-0.7,0-1.5-0.5-1.8-1.3c-0.8-2.1-2.6-3.2-4.5-4.1c-2.5-1.2-5-1-7.6-0.5
	c-3.6,0.7-7,2-10.2,3.7c-4.8,2.5-9.7,4.9-13.2,9.2c-0.7,0.8-1.3,1.7-1.9,2.6c-0.2,0.3-0.4,0.7-0.7,0.8c-0.6,0.2-1.1,0.8-1.8,0.4
	c-0.6-0.5-0.7-1.3-0.6-2c0.1-1.3,0.1-2.6,0-4c-0.2-3.4-1.5-6.5-3.1-9.5c-0.5-0.8-0.9-1.7-1.3-2.5c-0.7-1.3-1.8-2.3-3.2-3
	c-1.7-0.8-2.8-0.2-3,1.7c-0.1,1,0.1,2,0.6,2.9c1.4,2.3,2.8,4.6,4.1,7c1.6,2.9,2.6,5.9,2.5,9.3c0,0.7-0.3,1.3-0.6,1.9"/>
<path class="st0" d="M150.2,101.3c0.5,0.1,1,0.1,1.6,0c3.4-0.7,6.6-1.8,8.9-4.7c2.5-3.2,4.3-6.7,3.7-10.9c-0.2-1.6-1-3-1.6-4.5
	c-0.9-2.1-2.7-3.2-4.3-4.5c-0.5-0.4-1.2-0.6-1.9-0.7c-2.2-0.4-4.5-0.9-6.7,0.1c-0.8,0.3-1.7,0.2-2.5,0.3c-1.4,0.2-2.7,0.6-4,1.5
	c-0.7,0.5-1.5,1-2.4,1.1"/>
<path class="st0" d="M133,76.7c-0.9,0.7-1.8,0.8-2.9,0.7c-2.7-0.3-5.3,0.5-7.8,1.6c-3.2,1.4-6.2,3-8.1,6c-1.3,2.1-2.1,4.4-2,6.8
	c0,0.8-0.1,1.7,0,2.5c0.8,5.1,4,8.3,8.6,10.2c1,0.4,2.1,0.2,3.2,0.3c0.8,0.1,1.9-0.2,2.2,0.8c0.3,1-0.5,1.8-1.2,2.4
	c-1.7,1.5-2.9,3.4-3.3,5.5c-0.5,2.8-0.5,5.5,1.2,8.2c2.1,3.2,4.7,5.4,8.2,6.7c3.7,1.4,7.4,1.5,11.2,0.6c3.4-0.8,6.4-2.4,8.8-5
	c1.5-1.6,2.1-3.6,3-5.5c0.3-0.6,0-1.1,0-1.7c-0.1-1.1,0-1.3,1.1-1.3c0.6,0,1.1,0.1,1.6,0.5c2.1,1.4,4.4,2.3,6.9,2.5
	c0.9,0.1,1.9,0.5,2.8,0.8c0.3,0.1,0.4,0,0.5-0.3"/>
<path class="st0" d="M102.4,76.1c-2.8,3-6.5,5.5-8.6,8.9c-1.8,3-3.8,5.9-4.6,9.4c-0.6,2.7-2,5.3-2.6,8.1c-0.6,2.8-1.1,5.6-1.5,8.4
	c-0.3,2.4-0.4,4.8-0.9,7.2c0,0.1,0,0.2,0,0.2c0.1,1.7-0.2,3.4-0.2,5c0,2.5-0.3,4.9-0.6,7.3c-0.1,0.5-0.3,0.6-0.6,0.7"/>
<path class="st0" d="M167,91.2c2.2-0.9,4.3-0.4,6.2,0.6c3.4,1.9,5.1,5.1,5.9,8.8c0.5,2.2,0.9,4.4,0.5,6.6c-0.2,0.8-0.4,1.6-0.7,2.4
	c-0.5,1.3-0.3,1.6,1.1,2c1.6,0.5,3.2,1.1,4.7,1.9c1.3,0.7,2.4,1.6,3.2,2.8c1.5,2.3,3.1,4.5,3.6,7.3c0.5,3,0.7,5.9-0.2,8.9
	c-0.7,2.2-2.4,3.6-3.8,5.3c-2.1,2.6-5.3,2.8-8.2,3.6c-1.7,0.4-2,1-1.2,2.5c1.8,3.3,1.4,6.5,0.5,10c-1.2,4.6-4.2,7.1-8.3,8.7
	c-0.7,0.3-1.5,0.2-2.3,0.5c-1.1,0.4-1.8,1.2-2.5,2.1"/>
<path class="st0" d="M60,79.8c-0.1,0.7-0.7,1.1-1.2,1.4c-4,2.5-8.1,4.9-12.1,7.3c-1.6,1-3.2,1.9-4.7,3.1c-0.7,0.5-1.2,1.1-1.2,1.9"
	/>
<path class="st0" d="M116.1,51.4c0,0.3,0,0.5-0.2,0.7c-1.9,1.7-3.6,3.7-5.1,5.8c-3.1,4-5.1,8.8-7.1,13.4c-0.2,0.5-1.5,4.2-1.6,4.8"
	/>
<path class="st0" d="M155.4,189.3c0.1,1.7,1.2,3.1,1.9,4.6c0.7,1.5,0.7,3.1,0.9,4.7c0.4,4-0.2,7.9-3.2,10.8c-2.2,2.1-5,3.5-8.2,3.6
	c-0.3,0-0.6,0-0.8,0.1c-1.8,0.9-3.5,1.4-5.5,0.9c-0.7-0.2-1.4-0.1-2,0.2"/>
<path class="st0" d="M168,174.1c-0.2,4.1-1.6,7.7-4.4,10.6c-1.8,1.8-3.9,3.2-6.5,3.6c-0.2,0-0.4,0-0.5,0.1c-1.2,1.1-2.5,0.4-3.6-0.1
	c-1-0.5-2-0.5-3-0.6c-2.9-0.5-4.9-2-6.5-4.4c-0.3-0.5-0.7-1-1.1-1.6"/>
<path class="st0" d="M141.6,72.4c-0.8,1.4-1,3-1.2,4.6c0,0.3-0.1,0.7,0,0.9c1,1.3,0.4,2.5-0.3,3.5c-1.7,2.4-2.5,5.1-3.3,7.8
	c-0.4,1.5-0.1,3.1,0.6,4.6c0.1,0.2,0.2,0.5,0.3,0.6c0.5,0.6,0.2,1.5,0.7,1.9c2.5,1.7,4.5,4.1,7.5,4.9c1.1,0.3,2.3,0.4,3.5,0.6
	c0.3,1.1,0.2,2.2,0.1,3.3c-0.1,1.5,0.1,2.9,0.4,4.3c0.3,1.4,1.4,2.5,2.5,3.4c1,0.8,1.8,1.6,2,2.9"/>
<path class="st0" d="M132.8,129.4c-0.6,1.1-0.9,2.2-0.6,3.5c0.4,2-0.4,3.8-1.1,5.5c-1,2.4-2.6,4.4-4.6,6c-1.3,1-2.1,2.2-1.8,4.1
	c0.2,1.5,0.1,3.1,0.4,4.5c0.4,2.1,1.9,3.5,3.5,4.7c3.2,2.2,6.7,3.4,10.6,3.5c0.8,0,1.6,0.1,2.4,0.1c2.1,0,3.7-1,5.3-2.2
	c2.5-1.9,4.7-4.2,6-7.1c0.8-1.9,1.5-3.8,1.2-6c0-0.2,0-0.5,0.1-0.7c0.4-0.9-0.1-1.5-0.9-1.8c-2.8-1-4.5-3.1-6.1-5.4
	c-1.3-1.7-1.7-3.8-2.3-5.8c-0.3-1.1-0.8-2.2-1.2-3.2"/>
<path class="st0" d="M135,79.7c0.2-1-0.4-1.9-0.9-2.5c-1.3-1.4-2.9-2.5-4.5-3.7c-1.9-1.4-4.1-1.8-6.3-2.3c-2.3-0.6-4.6-0.4-6.9,0
	c-3,0.5-6.3,1-8.5,3.1c-1.1,1.1-4.9,6-5.7,5.5"/>
<path class="st0" d="M110.1,194c0.1,3.1,1.5,5.5,3.8,7.5c2.5,2.1,5.3,3.4,8.3,4.5c0.6,0.2,1.1,0,1.6-0.2c0.8-0.3,1.7-0.5,2.5-0.6
	c0.8-0.1,1.5-0.4,2.1-0.9c0.7-0.5,1.4-1,2.3-1.3c0.6-0.2,0.5-0.8,0.8-1.1c1-1.5,2.2-2.8,2.9-4.5c1.6-3.6,2.2-7.3,0.9-11.2
	c-0.2-0.7-0.4-1.5-0.3-2.3"/>
<path class="st0" d="M150.3,156.9c1.5,0.8,2.3,2.3,3.6,3.3c2.2,1.8,4.5,3.4,7.5,3.5c1.4,0.1,2.7,0.7,3.7,1.6
	c0.7,0.6,0.9,1.6,1.2,2.4c0.9,2.1,1.6,4.2,1.6,6.5"/>
<path class="st0" d="M101.6,79.7c0.3-2,1.1-3.7,2.5-5c0.5-0.4,0.8-0.9,1.1-1.4c1.2-2.2,3.4-3.3,5.6-4.1c2.1-0.7,4.4-1.2,6.6-1.4
	c3.6-0.4,7.1-0.1,10.6,0.9c2.1,0.6,3.6,2,5.5,2.9c0.6,0.3,0.9,1,1.3,1.5c0.3,0.3,0.6,0.5,1,0.6c0.5,0.2,1.1,0.1,1.3,0.7
	c0.3,0.7,0.4,1.4,0.2,2c-0.4,1.3-0.3,2.6-0.3,3.8"/>
<path class="st0" d="M183.1,61.6c-0.3,1.5,0.5,2.9,0.4,4.4c-0.2,3.2-0.6,6.3-3.5,8.4c-1.5,1.1-6.2,0.9-7.5-0.4
	c-1.2-1.1-1.8-2.7-1.7-4.3c0.1-1.9,1-3.7,2.3-5.2c1.9-2.1,4.1-3.6,7.1-3.6c0.5,0,1-0.3,1.4-0.5"/>
<path class="st0" d="M91.3,135.4c0,0.4-0.1,0.9-0.1,1.3c-0.1,0.5-0.3,1-0.7,1.2c-3,1.5-5.2,3.8-7.3,6.2c-1.3,1.5-2.4,3-3.4,4.7
	c-0.2,0.3-0.4,0.7-0.7,0.8c-2.1,0.9-2.2,3.1-2.8,4.8c-0.6,1.6-0.9,3.3-1.6,4.9"/>
<path class="st0" d="M115.8,149.9c-0.9,0.4-2,0.4-2.9,0.3c-1.6-0.1-2.8,0.2-4.1,1.3c-2.8,2.3-3.6,5.2-3.3,8.6
	c0.1,1.6,0.3,3.1,0.9,4.6c1,2.1,2.7,3.4,4.4,4.8c0,0,0.1,0.1,0.1,0.1c1.5,1,1.7,1.2,0.3,2.9c-1.1,1.4-1.9,2.7-2.3,4.5
	c-0.4,2.1,0.3,4,1,5.9c0.5,1.4,1.8,1.8,2.9,2.5"/>
<path class="st0" d="M112.2,170.8c0.6-0.1,1.2,0,1.7,0.3c1.8,0.8,3.6,0.8,5.5,0.8c2,0,2.5,0.2,2.6,2c0.1,2.5,1.6,4.2,3,6
	c1.9,2.5,4.8,3.2,7.8,3.6c2,0.3,4,0.1,5.9-0.4c1.9-0.5,3.7-1.1,5-2.8c1.1-1.5,2.2-3,2.9-4.8c0.8-2.3,0.5-4.6,0-6.9
	c-0.4-1.9-1.2-3.7-2.5-5.3c-0.4-0.5-0.6-1.3-0.7-2"/>
<path class="st0" d="M47.8,92.7c-0.1,1.7-1.3,2.7-2.3,3.8c-1.8,1.9-3.3,4-4.9,6.2c-0.5,0.7-1,1.4-0.8,2.4"/>
<path class="st0" d="M178.5,110.9c-0.4,0.3-0.9,0.5-1.2,0.9c-1.3,1.8-3.2,2.9-4.9,4.2c-0.7,0.6-1.5,1.1-2.4,1.3
	c-1.2,0.3-2,1.1-2.8,1.9"/>
<path class="st0" d="M40,105.3c1.1,0.1,2.1-0.3,3-0.9c1.2-0.7,2.5-1.1,3.7-1.6c0.8-0.3,1.7-0.6,2.5,0.3c0,0.7-0.2,1.4-0.7,2
	c-1.7,1.8-2.6,4-3.7,6.2c-0.6,1.2-1.7,2.3-1.6,3.9"/>
<path class="st0" d="M169.4,138.9c-0.7,0.1-1.1,0.6-1.4,1.1c-2.2,2.9-5.2,4.2-8.7,4.8c-1.2,0.2-2.4,0-3.6-0.1c-0.4,0-0.8-0.1-1.2,0"
	/>
<path class="st0" d="M63.4,62.3c-1.3-0.3-2.3,0-3.4,0.8c-1.8,1.2-3.8,1.9-5.7,2.9c-1.3,0.7-2.5,1.4-3.7,2.2c-0.4,0.3-0.9,0.7-1,1.3
	c0.8,0.7,1.8,0.9,2.8,1.1c1.1,0.3,1.5,0.7,2,1.7"/>
<path class="st0" d="M54.7,109.8c-2-0.2-3.5,1.1-5,1.9c-1.6,0.9-3.1,2-4.7,3c-0.4,0.3-0.9,0.5-1.4,0.4"/>
<path class="st0" d="M121.5,119.2c-0.6,0.2-1.1,0.4-1.6,0.8c-2,1.9-4.7,2.4-7.2,3.2c-0.3,0.1-0.6,0.1-0.8,0
	c-1.6-0.8-2.9,0.2-4.3,0.7"/>
<path class="st0" d="M84.9,83.8c-1.2,0.2-2.3,0.9-3.2,1.6c-2.2,1.6-4.4,3.3-6.9,4.5c-2.2,1.1-4.4,1-6.7,0.8c-2.5-0.3-4.6-1.8-7-2.3"
	/>
<path class="st0" d="M74.2,129.2c-0.1,2.9,0.5,5.6,1.7,8.3c0.9,2.1,1.2,4.3,1.2,6.5c0,1.6,0,3.1,0,4.7c0,0.6,0,1.3,0.4,1.8"/>
<path class="st0" d="M194,71.7c-1.9,0.4-3.6,1-4.7,2.8c-0.7,1.1-0.5,4,0.4,4.9c0.5,0.5,1,0.3,1.6,0.3"/>
<path class="st0" d="M70.3,123.8c-1.6-0.1-2.5,1.2-3.4,2c-1.7,1.4-3.7,2.7-5.1,4.5c-0.4,0.5-1,0.8-1.7,0.8"/>
<path class="st0" d="M138.1,96.4c-0.4,0.3-0.8,0.5-1.1,1.1c-1.8,3.4-4.5,5.8-8.3,6.8c-0.9,0.2-1.6,0.7-2.4,1.1"/>
<path class="st0" d="M70.4,123.9c0.3,1.7-0.3,3.3-0.4,4.9c-0.1,1.2,0,1.5,0,2.9c0,0.6,0,1.8,0.2,2.3"/>
<path class="st0" d="M82.2,51.3c-2.7,0.2-5.3,1.1-8,0.8c-0.6-0.1-1.1,0.2-1.7,0.5c-1,0.5-1.9,0.7-3-0.1c-1-0.7-2.4-0.2-3.6-0.2
	c-1.2,0-2.5,0.5-3.7,0.1"/>
<path class="st0" d="M76.8,64.6c-0.2,1.3,0.5,2.2,1.3,3.1c1.8,2,3.9,3.5,6.1,4.8c0.6,0.3,1.3,0.7,1.9,0.7c2.1,0.2,4.2,1,6.4,0.6
	c0.9-0.2,1.7,0.3,2.5,0.2"/>
<path class="st0" d="M60.3,111.3c0,1.8,0.4,2.3,0.5,4.1c0,1.7-0.6,3.3-0.8,5c-0.1,0.5-0.2,1-0.2,1.6c0.1,1.9,0.3,3.8-0.1,5.8
	c-0.2,1.2,0.1,2.5-0.1,3.7c-0.2,1.3-0.9,2.4-1.2,3.7"/>
<path class="st0" d="M121.5,180.3c-2.6,0.5-4.9,1.7-6.8,3.6c-1.1,1-2.1,2.1-2.6,3.6c-0.4,1.3-1.3,2.5-1.5,4c-0.1,0.7-0.5,1-0.5,2.2"
	/>
<path class="st0" d="M194.6,72.3c-0.1,0.9,0,1.8,0,2.8c-0.1,2.1-1,4.7-3.3,4.7"/>
<path class="st0" d="M124.3,147.2c-0.8,0.1-1.6,0.4-2.3,0.8c-1.5,1-4.6,1.5-6.2,1.9"/>
<path class="st0" d="M130.4,159.3c-0.7,0.8-0.8,1.8-1,2.7c-0.5,1.8-0.9,3.7-2.1,5.3c-1.6,2.2-3.6,3.7-5.9,4.8"/>
<path class="st0" d="M167,119.7c0.1,0.4,0.4,0.7,0.6,1c2.2,3.1,3.5,6.5,3.3,10.4c-0.1,2.2-0.5,4.4-1.3,6.5c-0.3,1-0.1,1.4,0.7,2
	c1.8,1.2,3.5,2.3,5.8,2.3c0.5,0,1,0.3,1.4,0.6"/>
<path class="st0" d="M92.6,48c-0.1-1.3-1.1-2.5-2.3-2.8c-1.2-0.3-2.2-1.1-3.3-1.6c-1.3-0.5-2.5-1.3-4-1c-0.4,0.1-0.6-0.3-0.8-0.5
	c-0.4-0.4-0.9-0.7-1.3-1.1"/>
<path class="st0" d="M70.4,53.2C70,54.4,69.1,55,68,55.6c-2.5,1.4-5.2,2.3-7.9,3.1c-0.7,0.2-1.3,0.6-1.8,1.2"/>
<path class="st0" d="M35.8,96.8c1.4-0.9,2.7-1.8,4.1-2.6c0.2-0.1,0.5-0.4,0.7-0.3c1.9,0.4,3.4-0.8,5.2-1.2c0.4-0.1,0.7-0.2,1.1-0.2
	c1.8,0,1.9,0,2.3-1.7c0-0.1,0.1-0.2,0.1-0.4"/>
<path class="st0" d="M103,80.6c-1.1,2.1-0.5,4.1,0.4,6c0.5,1.1,1.3,1.9,2.1,2.8c0.4,0.4,1,4.7,1.1,5.4"/>
<path class="st0" d="M109.6,37.1c0.5,1,0,3.6-0.2,4.7c-0.2,1-0.2,3.1-0.1,4.1"/>
<path class="st0" d="M82.9,42.9c-0.1,0.5,0,0.9,0.4,1.3c0.9,1.1,1.7,3.3,2.5,4.4"/>
<path class="st0" d="M80.6,45c0.4,1,0.7,1.9,1.1,2.9c0.6,1.5,0.7,3,1,4.6"/>
<path class="st0" d="M62,79.5c-1.1,0.1-2.1,0.3-3.2-0.4c-0.9-0.6-2.3-0.4-3.4-0.4c-2.6-0.1-5.1,0-7.7,0.3c-1.5,0.1-3,0-4.6,0.1"/>
<path class="st0" d="M54.4,72.4c-0.8,0.9-2,0.9-2.8,1.4c-1.6,1.1-3.5,1.7-5,2.9c-0.6,0.5-1.1,1.1-1.1,1.9"/>
<path class="st0" d="M95.7,91.1c-0.6,1.9-0.6,3.8,0.1,5.8c0.1,0.2,0.2,0.3,0.4,0.5"/>
<path class="st0" d="M93.1,36.8c0.5,0,1.5,0.6,1.9,1c1.1,1.1,2.2,2.1,3.4,3.1"/>
<path class="st0" d="M60.3,111.3c-1,0-1.8,0.5-2.6,0.9c-0.8,0.5-1.6,1.2-2.6,1"/>
<path class="st0" d="M112.5,44.8c0.5,1.2-0.1,2.3-0.4,3.4c-0.2,0.8-0.3,1.5,0,2.3"/>
<path class="st0" d="M90.3,40.5c-0.3,0.9,0,1.6,0.5,2.4c0.4,0.7,0.8,1.6,0.4,2.5"/>
<path class="st0" d="M102.1,37.8c1.6,1,2.8,3.5,4.1,4.9"/>
<path class="st0" d="M101.8,34.4c0.1,1.1,0.5,2.4,0.1,3.3c-0.5,1.2-0.5,2.5-0.9,3.6c-0.1,0.4-0.2,0.8-0.2,1.2"/>
<path class="st0" d="M100.8,133.3c-0.9,0.7-6.1,6.4-6.8,7.3c-0.4,0.5-0.8,1.6-1.4,2.2"/>
<path class="st0" d="M90.8,137.9c0.6,1.6,1.2,3.3,1.7,4.9"/>
<path class="st0" d="M54.1,60.6c0.7,0.2,1.5,0.2,2.3,0.1c1.9-0.4,3.2,0.7,4.7,1.5c0,0,0,0.1,0,0.1"/>
<path class="st0" d="M74,131.4c-1.5,0.5-2.4,1.8-3.7,2.6c-0.9,0.5-0.6,1.8-0.6,2.8"/>
<path class="st0" d="M92.8,36.9c-0.4,1.6-0.3,3.1,0.5,4.6c0.6,1.1,0.8,2.3,0.8,3.5"/>
<path class="st0" d="M109.6,37.1c-0.3,0.8,0,0-1.3,2c-0.9,0.9-1.8,2-2.2,3.3"/>
<path class="st0" d="M137.5,74.9c1,0,2,0,3,0"/>
<path class="st0" d="M116.1,49.5c-1.9,0.2-3.7,0.9-5.2,2.2"/>
<path class="st0" d="M54.7,109.8c0.1,1.5,0.1,1.6,0.2,3.1c0,0.9-0.9,1.6-1.4,2.4"/>
<path class="st0" d="M136.2,77.4c-0.6-0.4-1.1-0.3-1.7,0"/>
</svg>
